<svg xmlns="http://www.w3.org/2000/svg" viewBox="0 0 1000 1000" fill="#000000"><path d="M749.728 72.253C824.2 116.462 883.54 175.803 927.75 250.276c44.803 77.143 67.253 160.418 67.253 249.726 0 89.308-22.45 172.583-67.253 249.726C883.541 824.2 824.2 883.54 749.728 927.75c-77.143 44.803-160.418 67.253-249.726 67.253-89.308 0-172.583-22.45-249.726-67.253-74.473-44.209-133.814-103.55-178.023-178.022C27.451 672.585 5 589.31 5 500.002c0-89.308 22.45-172.583 67.253-249.726 44.209-74.473 103.55-133.814 178.023-178.023C327.419 27.45 410.793 5 500.496 5c89.011 0 172.089 22.45 249.232 67.253zm-581.54 509.342 323.407 160.22 303.627-186.923-4.945 26.703 29.67 3.956 12.858-72.198-72.198-13.846-5.934 29.67 20.77 3.957-285.826 175.055-291.76-145.385v-80.11l309.562-190.88 276.924 133.517v4.945l-294.726 180.99-222.528-107.803v32.638l224.506 108.791L814.014 447.09v-40.55L506.43 258.189 168.187 465.88z"/></svg>