<svg width="80" height="80" viewBox="0 0 80 80" fill="none" xmlns="http://www.w3.org/2000/svg">
<rect width="80" height="80" rx="40" fill="white" fill-opacity="0.9"/>
<path fill-rule="evenodd" clip-rule="evenodd" d="M40 80C62.0908 80 80 62.0908 80 40C80 17.9092 62.0908 0 40 0C17.9092 0 0 17.9092 0 40C0 62.0908 17.9092 80 40 80ZM40.1631 76.2463C60.1811 76.2463 76.4075 60.0179 76.4075 40.0019C76.4075 19.9858 60.1811 3.75583 40.1631 3.75583C20.1454 3.75583 3.91917 19.9821 3.91917 40C3.91917 60.0179 20.1454 76.2463 40.1631 76.2463ZM40 73.4694C58.485 73.4694 73.4694 58.485 73.4694 40C73.4694 21.515 58.485 6.53063 40 6.53063C21.515 6.53063 6.53063 21.515 6.53063 40C6.53063 58.485 21.515 73.4694 40 73.4694ZM40.0825 69.3887C56.3575 69.3887 69.5519 56.1944 69.5519 39.9194C69.5519 23.6444 56.3575 10.4498 40.0825 10.4498C23.8075 10.4498 10.6129 23.6425 10.6129 39.9194C10.6129 56.1962 23.8056 69.3887 40.0825 69.3887ZM39.835 45.435C38.1971 45.435 36.6063 45.5719 35.0658 45.8327L37.4373 41.7148C38.2383 41.6623 39.0394 41.6361 39.835 41.6361C41.6979 41.6361 43.5927 41.7898 45.4238 42.0844L36.2158 26.0906L20.8864 52.7142L18.6952 48.9096L36.1802 18.5413L36.2158 18.6033L36.2498 18.5431L57.3519 55.1925H52.9712L48.0389 46.6262C45.4688 45.8496 42.7223 45.435 39.835 45.435ZM58.7158 52.7779L38.2852 17.2956H42.6658L60.9052 48.9733L58.7158 52.7779ZM38.4392 34.8014L30.0511 49.3711C33.0529 48.4629 36.5856 48.0577 39.9194 48.0577C40.1896 48.0577 40.4596 48.0614 40.7298 48.0671C42.6227 48.1121 44.5364 48.3129 46.3694 48.6562L49.1683 53.5173C46.3036 52.4723 43.2025 51.8569 39.9194 51.8569C35.0639 51.8569 30.6046 53.0613 26.7211 55.155L26.7829 55.0444L26.6986 55.1906H22.3179L36.2498 30.9948L38.4392 34.8014Z" fill="url(#paint0_linear_3_585)"/>
<defs>
<linearGradient id="paint0_linear_3_585" x1="63.0294" y1="75.2869" x2="16.2536" y2="3.61355" gradientUnits="userSpaceOnUse">
<stop offset="0.0076157" stop-color="#645AFF"/>
<stop offset="0.5038" stop-color="#E40C5B"/>
<stop offset="1" stop-color="#FF4C3B"/>
</linearGradient>
</defs>
</svg>
