<svg width="24" height="24" viewBox="0 0 24 24" fill="none" xmlns="http://www.w3.org/2000/svg">
<path d="M0 12C0 5.37258 5.37258 0 12 0C18.6274 0 24 5.37258 24 12C24 18.6274 18.6274 24 12 24C5.37258 24 0 18.6274 0 12Z" fill="white" fill-opacity="0.9"/>
<path fill-rule="evenodd" clip-rule="evenodd" d="M12 24C18.6272 24 24 18.6272 24 12C24 5.37276 18.6272 0 12 0C5.37276 0 0 5.37276 0 12C0 18.6272 5.37276 24 12 24ZM12.0489 22.8739C18.0543 22.8739 22.9222 18.0054 22.9222 12.0006C22.9222 5.99574 18.0543 1.12675 12.0489 1.12675C6.04363 1.12675 1.17575 5.99462 1.17575 12C1.17575 18.0054 6.04363 22.8739 12.0489 22.8739ZM12 22.0408C17.5455 22.0408 22.0408 17.5455 22.0408 12C22.0408 6.4545 17.5455 1.95919 12 1.95919C6.4545 1.95919 1.95919 6.4545 1.95919 12C1.95919 17.5455 6.4545 22.0408 12 22.0408ZM12.0248 20.8166C16.9073 20.8166 20.8656 16.8583 20.8656 11.9758C20.8656 7.09331 16.9073 3.13494 12.0248 3.13494C7.14225 3.13494 3.18388 7.09275 3.18388 11.9758C3.18388 16.8589 7.14169 20.8166 12.0248 20.8166ZM11.9505 13.6305C11.4591 13.6305 10.9819 13.6716 10.5197 13.7498L11.2312 12.5144C11.4715 12.4987 11.7118 12.4908 11.9505 12.4908C12.5094 12.4908 13.0778 12.5369 13.6271 12.6253L10.8647 7.82719L6.26593 15.8143L5.60856 14.6729L10.8541 5.56238L10.8647 5.58099L10.8749 5.56294L17.2056 16.5578H15.8914L14.4117 13.9879C13.6406 13.7549 12.8167 13.6305 11.9505 13.6305ZM17.6147 15.8334L11.4856 5.18869H12.7997L18.2716 14.692L17.6147 15.8334ZM11.5318 10.4404L9.01532 14.8113C9.91588 14.5389 10.9757 14.4173 11.9758 14.4173C12.0569 14.4173 12.1379 14.4184 12.2189 14.4201C12.7868 14.4336 13.3609 14.4939 13.9108 14.5969L14.7505 16.0552C13.8911 15.7417 12.9607 15.5571 11.9758 15.5571C10.5192 15.5571 9.18137 15.9184 8.01632 16.5465L8.03488 16.5133L8.00957 16.5572H6.69538L10.8749 9.29844L11.5318 10.4404Z" fill="url(#paint0_linear_5061_3656)"/>
<defs>
<linearGradient id="paint0_linear_5061_3656" x1="18.9088" y1="22.5861" x2="4.87607" y2="1.08406" gradientUnits="userSpaceOnUse">
<stop offset="0.0076157" stop-color="#645AFF"/>
<stop offset="0.5038" stop-color="#E40C5B"/>
<stop offset="1" stop-color="#FF4C3B"/>
</linearGradient>
</defs>
</svg>
