<?xml version="1.0" encoding="UTF-8"?>
<svg id="Layer_1" data-name="Layer 1" xmlns="http://www.w3.org/2000/svg" viewBox="0 0 2622.49 836.89">
  <defs>
    <style>
      .cls-1 {
        fill: #1c1c1c;
      }
    </style>
  </defs>
  <path class="cls-1" d="m334.86,352.24c-5.83.01-11.91,7.59-18.72,23.54-7.96,20.76-17.02,44.37-17.02,44.37,0,0,9.86,29.74,15.38,44.37h0c5.52,14.61,8.7,23.55,22.43,23.55h.06c5.83-.02,11.91-7.6,18.72-23.55,7.96-20.75,17.02-44.37,17.02-44.37,0,0-9.86-29.75-15.38-44.37-5.52-14.62-8.7-23.57-22.48-23.54Z"/>
  <path class="cls-1" d="m451.36,306.28c-19.16,0-27.02,18.46-31.88,28.68s-46.76,85.18-46.76,85.18h0s39.31,73.41,45.19,85.18h0c5.88,11.78,15.29,28.68,34.45,28.68s27.02-18.46,31.88-28.68,46.76-85.18,46.76-85.18h0s-39.31-73.41-45.19-85.18c-5.88-11.78-15.29-28.68-34.45-28.68Z"/>
  <path class="cls-1" d="m414.36,225.94c-107.21,0-194.12,86.91-194.12,194.12s86.91,194.12,194.12,194.12,194.12-86.91,194.12-194.12-86.91-194.12-194.12-194.12Zm0,350.14c-86.17,0-156.02-69.85-156.02-156.02h0c0-86.17,69.85-156.02,156.02-156.02s156.02,69.85,156.02,156.02-69.85,156.02-156.02,156.02Z"/>
  <path class="cls-1" d="m1224.5,371.18c-8.8-5.48-19.94-8.23-33.42-8.23-6.41.04-12.77,1.08-18.85,3.08-6.4,2.06-12.51,4.94-18.17,8.57-5.57,3.54-10.69,7.74-15.25,12.51-3.89,4.02-7.16,8.57-9.75,13.53-2.18-6.56-5.04-12.28-8.59-17.13-4.91-6.76-11.54-12.08-19.19-15.42-7.77-3.43-16.79-5.14-27.08-5.14-7.08,0-14.11,1.28-20.74,3.77-6.71,2.5-13.06,5.9-18.85,10.11-5.65,4.05-10.62,8.97-14.74,14.57-.78,1.06-1.52,2.14-2.23,3.25v-28.61h-35.64v179.94h35.64v-108.31c-.05-5.72,1.12-11.39,3.43-16.62,2.24-5.07,5.5-9.63,9.6-13.37,4.21-3.83,9.09-6.85,14.39-8.91,5.68-2.21,11.73-3.31,17.82-3.26,7.54,0,13.94,1.71,19.19,5.14,5.26,3.43,9.26,8.4,12,14.91,2.74,6.51,4.11,14.45,4.11,23.82v106.59h35.64v-107.62c-.07-5.83,1.1-11.62,3.43-16.97,2.26-5.11,5.53-9.71,9.6-13.54,4.22-3.95,9.16-7.03,14.57-9.08,5.74-2.2,11.85-3.3,17.99-3.26,8.23,0,14.97,1.6,20.22,4.8,5.25,3.2,9.2,8.05,11.82,14.57s3.94,14.91,3.94,25.19v105.91h35.64v-107.96c0-16.68-2.23-30.62-6.68-41.81-4.46-11.2-11.08-19.54-19.88-25.02Z"/>
  <path class="cls-1" d="m819.56,306.06l-92.88,239.92h37.7l22.68-59.64h100.37l22.61,59.64h39.41l-92.2-239.92h-37.7Zm-18.94,144.64l18.25-47.98,5.14-14.57c2.06-5.83,4.17-12.05,6.34-18.68s4.23-12.91,6.17-18.85c.33-1.01.65-1.99.97-2.94.08.24.15.47.23.71,2.06,6.28,4.34,13.2,6.85,20.74,2.51,7.54,4.74,14.39,6.68,20.56s3.26,10.05,3.94,11.65l18.71,49.35h-73.29Z"/>
  <polygon class="cls-1" points="1753.52 320.11 1718.22 320.11 1718.22 366.04 1680.86 366.04 1680.86 400.31 1718.22 400.31 1718.22 545.98 1753.52 545.98 1753.52 400.31 1795.33 400.31 1795.33 366.04 1753.52 366.04 1753.52 320.11"/>
  <path class="cls-1" d="m2168.23,388.21c-3.07-3.52-6.72-6.86-10.97-10-6.84-5.02-14.41-8.95-22.45-11.65-8.33-2.85-17.07-4.3-25.88-4.28-16.22,0-30.73,4.06-43.53,12.17s-22.91,19.19-30.33,33.25c-7.43,14.05-11.14,30.1-11.14,48.15s3.77,34.1,11.31,48.15c7.54,14.05,17.76,25.13,30.67,33.25,12.91,8.11,27.59,12.17,44.04,12.17,8.23,0,16.4-1.39,24.16-4.11,7.5-2.54,14.55-6.24,20.91-10.97,5.01-3.68,9.45-8.07,13.2-13.03v24.68h35.3v-253.63h-35.3v95.86Zm-5.66,100.01c-4.33,9.08-11.02,16.83-19.36,22.45-8.23,5.48-17.71,8.23-28.45,8.23s-20.22-2.74-28.45-8.23c-8.34-5.62-15.03-13.37-19.36-22.45-4.68-9.48-7.03-20.28-7.03-32.39s2.34-22.91,7.03-32.39c4.33-9.08,11.02-16.83,19.36-22.45,8.23-5.48,17.71-8.23,28.45-8.23s20.22,2.74,28.45,8.23c8.34,5.62,15.03,13.37,19.36,22.45,4.68,9.48,7.03,20.28,7.03,32.39s-2.34,22.91-7.03,32.39Z"/>
  <path class="cls-1" d="m1950.25,474.35c.06,6.11-1.11,12.17-3.43,17.82-2.15,5.28-5.36,10.06-9.43,14.05-4.09,3.94-8.93,7.03-14.22,9.08-5.79,2.23-11.96,3.33-18.17,3.26-8.91,0-16.51-2.06-22.79-6.17-6.28-4.11-11.08-10-14.39-17.65-3.31-7.65-4.97-16.74-4.97-27.25v-101.45h-35.3v111.05c0,14.85,2.57,27.65,7.71,38.39,5.14,10.74,12.45,19.08,21.94,25.02,9.48,5.94,20.62,8.91,33.42,8.91,9.91.08,19.73-1.97,28.79-6,8.71-3.85,16.57-9.39,23.13-16.28,2.92-3.01,5.5-6.32,7.71-9.85v28.7h35.3v-179.94h-35.3v108.31Z"/>
  <path class="cls-1" d="m2409,414.54c-3.78-10.27-9.61-19.66-17.14-27.59-7.44-7.78-16.36-14.01-26.22-18.34-10.26-4.5-21.36-6.78-32.56-6.68-12.63-.12-25.15,2.27-36.84,7.03-11.01,4.48-20.94,11.26-29.13,19.88-8.25,8.78-14.71,19.08-19.02,30.33-4.57,11.65-6.85,24.56-6.85,38.73,0,17.82,4.06,33.59,12.17,47.3,8.05,13.65,19.66,24.84,33.59,32.39,14.28,7.88,30.67,11.82,49.18,11.82,8.75-.04,17.45-1.25,25.88-3.6,8.67-2.35,17.06-5.62,25.02-9.77,7.38-3.75,14.14-8.6,20.05-14.39l-17.82-25.02c-8.91,7.77-17.19,13.14-24.85,16.11-7.93,3.02-16.36,4.53-24.85,4.46-12.57,0-23.65-2.51-33.25-7.54-9.36-4.8-17.11-12.25-22.28-21.42-3.97-6.99-6.44-14.93-7.41-23.82h137.65l.34-15.08c.23-12.57-1.66-24.16-5.66-34.79Zm-107.11-13.02c8.45-4.68,18.85-7.03,31.19-7.03,7.51-.06,14.92,1.7,21.59,5.14,6.51,3.33,12.15,8.14,16.45,14.05,4.33,5.92,6.94,12.91,7.54,20.22v2.4h-100.66c1.08-5.21,2.64-9.96,4.7-14.22,4.05-8.72,10.78-15.92,19.19-20.56Z"/>
  <path class="cls-1" d="m1623.62,281.73c-7.31,0-13.08,2.06-17.31,6.17s-6.34,9.48-6.34,16.11c0,7.08,2.06,12.57,6.17,16.45,4.11,3.88,9.94,5.83,17.48,5.83,7.31,0,13.08-2.06,17.31-6.17s6.34-9.48,6.34-16.11c0-7.08-2.06-12.57-6.17-16.45-4.11-3.88-9.94-5.83-17.48-5.83Z"/>
  <rect class="cls-1" x="1515.31" y="292.35" width="35.3" height="253.63"/>
  <rect class="cls-1" x="1606.48" y="366.04" width="35.3" height="179.94"/>
  <path class="cls-1" d="m1435.46,374.95c-12.57-8-26.96-12-43.19-12-9.85,0-19.59,2.05-28.62,6-8.71,3.64-16.67,8.87-23.48,15.42-2.41,2.37-4.47,4.78-6.17,7.24v-25.57h-35.64v255.34h35.64v-98.92c1.15,1.33,2.41,2.66,3.77,3.98,7.28,6.9,15.76,12.42,25.02,16.28,9.62,4.19,20.01,6.34,30.5,6.34,15.77,0,29.93-4.06,42.5-12.17,12.57-8.11,22.45-19.19,29.65-33.24,7.2-14.05,10.8-29.99,10.8-47.81s-3.66-34.05-10.97-47.98c-7.31-13.94-17.25-24.91-29.82-32.9Zm-.34,112.07c-4.49,8.8-11.23,16.25-19.54,21.59-8.23,5.26-17.59,7.88-28.1,7.88-10.74,0-20.22-2.63-28.45-7.88-8.31-5.34-15.05-12.79-19.54-21.59-4.8-9.14-7.2-19.54-7.2-31.19s2.4-22.05,7.2-31.19c4.46-8.77,11.21-16.17,19.54-21.42,8.23-5.14,17.71-7.71,28.45-7.71s20.22,2.63,28.45,7.88c8.25,5.28,14.94,12.68,19.37,21.42,4.68,9.03,7.03,19.37,7.03,31.02s-2.4,22.05-7.2,31.19Z"/>
</svg>