<?xml version="1.0" encoding="UTF-8" standalone="no"?>
<svg
   xmlns:dc="http://purl.org/dc/elements/1.1/"
   xmlns:cc="http://creativecommons.org/ns#"
   xmlns:rdf="http://www.w3.org/1999/02/22-rdf-syntax-ns#"
   xmlns:svg="http://www.w3.org/2000/svg"
   xmlns="http://www.w3.org/2000/svg"
   xmlns:sodipodi="http://sodipodi.sourceforge.net/DTD/sodipodi-0.dtd"
   xmlns:inkscape="http://www.inkscape.org/namespaces/inkscape"
   width="24"
   height="24"
   viewBox="0 0 24 24"
   fill="none"
   version="1.1"
   id="svg18"
   sodipodi:docname="intr.svg"
   inkscape:version="0.92.5 (2060ec1f9f, 2020-04-08)">
  <metadata
     id="metadata22">
    <rdf:RDF>
      <cc:Work
         rdf:about="">
        <dc:format>image/svg+xml</dc:format>
        <dc:type
           rdf:resource="http://purl.org/dc/dcmitype/StillImage" />
        <dc:title></dc:title>
      </cc:Work>
    </rdf:RDF>
  </metadata>
  <sodipodi:namedview
     pagecolor="#ffffff"
     bordercolor="#666666"
     borderopacity="1"
     objecttolerance="10"
     gridtolerance="10"
     guidetolerance="10"
     inkscape:pageopacity="0"
     inkscape:pageshadow="2"
     inkscape:window-width="1848"
     inkscape:window-height="1016"
     id="namedview20"
     showgrid="false"
     inkscape:zoom="39.333333"
     inkscape:cx="9.2553269"
     inkscape:cy="15.668617"
     inkscape:window-x="72"
     inkscape:window-y="27"
     inkscape:window-maximized="1"
     inkscape:current-layer="svg18" />
  <g
     clip-path="url(#clip0_101_4)"
     id="g8">
    <circle
       cx="12"
       cy="12"
       r="11.5"
       fill="#161616"
       stroke="white"
       id="circle2" />
    <g
       clip-path="url(#clip1_101_4)"
       id="g6">
      <path
         d="M18.7539 18H9.26488C9.2197 17.9999 9.17542 17.9874 9.13694 17.9639L5.70635 15.866C5.66123 15.8384 5.62644 15.7969 5.60723 15.748C5.58803 15.699 5.58546 15.6452 5.59993 15.5946C5.61439 15.5441 5.6451 15.4996 5.68739 15.4679C5.72969 15.4362 5.78126 15.419 5.8343 15.419H15.3246C15.3699 15.4191 15.4144 15.4316 15.453 15.455L18.8818 17.5516C18.9276 17.579 18.963 17.6205 18.9826 17.6697C19.0023 17.7189 19.005 17.7732 18.9905 17.8241C18.9759 17.8751 18.9449 17.9199 18.9022 17.9517C18.8594 17.9834 18.8073 18.0004 18.7539 18ZM9.33241 17.516H17.8947L15.2557 15.9025H6.69306L9.33241 17.516ZM18.163 9.57972H8.67268C8.62749 9.57964 8.5832 9.56716 8.54474 9.54364L5.11549 7.44704C5.07034 7.4194 5.03552 7.37793 5.01633 7.32892C4.99713 7.27991 4.9946 7.22603 5.00912 7.17547C5.02364 7.12491 5.05442 7.08042 5.09679 7.04875C5.13916 7.01708 5.1908 6.99997 5.24388 7H14.7342C14.7795 6.99999 14.824 7.01249 14.8626 7.03608L18.2914 9.13268C18.3365 9.1603 18.3713 9.20173 18.3905 9.2507C18.4097 9.29967 18.4123 9.3535 18.3978 9.40404C18.3833 9.45458 18.3526 9.49907 18.3103 9.53077C18.2681 9.56248 18.2165 9.57966 18.1634 9.57972H18.163ZM8.74199 9.09572H17.306L14.6649 7.484H6.10263L8.74199 9.09572ZM13.3077 11.451C13.0292 11.179 12.6535 11.0269 12.2623 11.0278H12.2468C11.8504 11.0297 11.471 11.1875 11.1921 11.4664C10.9132 11.7454 10.7577 12.1226 10.7596 12.5152C10.7615 12.9077 10.9209 13.2835 11.2025 13.5597C11.4842 13.8359 11.8651 13.99 12.2614 13.9881H12.2765C12.5721 13.9851 12.8601 13.8954 13.1042 13.7304C13.3483 13.5653 13.5374 13.3323 13.6478 13.0607C13.7582 12.7892 13.7848 12.4913 13.7242 12.2048C13.6637 11.9183 13.5187 11.656 13.3077 11.451Z"
         fill="white"
         id="path4" />
    </g>
  </g>
  <defs
     id="defs16">
    <clipPath
       id="clip0_101_4">
      <rect
         width="24"
         height="24"
         fill="white"
         id="rect10" />
    </clipPath>
    <clipPath
       id="clip1_101_4">
      <rect
         width="14"
         height="11"
         fill="white"
         transform="translate(5 7)"
         id="rect13" />
    </clipPath>
  </defs>
  <path
     style="fill:#1a0a2d;fill-opacity:1;stroke-width:0.02542373"
     d="M 11.301937,22.969704 C 9.0645314,22.792134 7.0935525,22.059471 5.3874568,20.771141 2.9740077,18.948665 1.4393512,16.256397 1.0775401,13.210197 1.0205426,12.730318 1.0127728,11.364838 1.0643755,10.896638 1.4303186,7.5763725 3.167855,4.6952381 5.9130754,2.8566581 7.3468433,1.8964085 8.9710293,1.3032252 10.781004,1.0787986 c 0.458925,-0.056904 1.884775,-0.065434 2.326018,-0.013915 3.037793,0.3546896 5.610776,1.7601407 7.480293,4.0859911 0.273765,0.3405882 0.750607,1.0399876 0.953349,1.3983051 0.819147,1.4477303 1.29233,3.0105397 1.420228,4.6906782 0.03665,0.481435 0.01678,1.475421 -0.03913,1.957627 -0.339353,2.926929 -1.774062,5.542255 -4.037659,7.360228 -1.638012,1.315545 -3.564427,2.116874 -5.688103,2.366075 -0.327282,0.03841 -1.599966,0.06926 -1.894068,0.04592 z m 7.606804,-5.005348 c 0.03001,-0.02102 0.06779,-0.07829 0.08395,-0.12727 0.02476,-0.07503 0.02206,-0.103646 -0.01712,-0.181679 -0.04115,-0.08195 -0.22823,-0.203659 -1.622785,-1.055785 C 16.485835,16.069883 15.69107,15.58536 15.586639,15.522905 L 15.396764,15.40935 H 10.572209 5.7476544 l -0.079028,0.07061 c -0.096768,0.08646 -0.1116227,0.224449 -0.034861,0.323818 0.02724,0.03526 0.8332139,0.543834 1.7910529,1.130158 l 1.7415254,1.066044 4.8439193,0.0013 c 4.27041,0.0011 4.850379,-0.0032 4.898478,-0.03692 z m -6.262508,-4.019441 c 0.339329,-0.08212 0.689421,-0.333363 0.874758,-0.627775 0.164857,-0.261878 0.214423,-0.424282 0.228388,-0.748313 0.01105,-0.25626 0.0056,-0.307059 -0.05365,-0.496958 -0.228885,-0.734114 -0.970063,-1.174898 -1.722316,-1.024274 -0.717141,0.143593 -1.216245,0.740299 -1.217713,1.455842 -8.27e-4,0.402959 0.151044,0.773069 0.430183,1.048358 0.391785,0.386382 0.910825,0.526106 1.460347,0.39312 z M 18.333554,9.5130001 C 18.421884,9.4246751 18.435899,9.270186 18.363374,9.1843666 18.328964,9.1436516 16.2246,7.8435662 14.989979,7.1002722 L 14.813622,6.9940954 H 9.9869697 c -5.3497788,0 -4.9181507,-0.014289 -4.9772479,0.1647767 -0.034254,0.1037917 -0.013349,0.1960406 0.059197,0.2612184 0.047923,0.043056 3.3056555,2.0429797 3.4745438,2.1330244 0.052311,0.02789 0.9176561,0.033915 4.8896674,0.034044 l 4.826108,1.525e-4 0.07432,-0.074316 z"
     id="path829"
     inkscape:connector-curvature="0" />
  <path
     style="fill:#1a0a2d;fill-opacity:1;stroke-width:0.02542373"
     d="m 7.4563281,8.2962999 -1.2778123,-0.7810181 4.2468622,-0.00643 4.246863,-0.00643 1.276712,0.7785556 c 0.702192,0.4282056 1.28148,0.7829 1.287306,0.78821 0.0058,0.00531 -1.904767,0.00931 -4.245763,0.00889 L 8.7341404,9.0773181 Z"
     id="path831"
     inkscape:connector-curvature="0" />
  <path
     style="fill:#1a0a2d;fill-opacity:1;stroke-width:0.02542373"
     d="M 8.0412581,16.711815 6.76363,15.930536 l 4.247142,-0.0064 4.247142,-0.0064 1.276249,0.779178 c 0.701937,0.428547 1.281016,0.783242 1.286842,0.78821 0.0058,0.005 -1.904767,0.0088 -4.245763,0.0085 l -4.2563558,-5.01e-4 z"
     id="path833"
     inkscape:connector-curvature="0" />
</svg>
