<svg width="24" height="24" viewBox="0 0 24 24" fill="none" xmlns="http://www.w3.org/2000/svg">
<path d="M0 12C0 5.37258 5.37258 0 12 0C18.6274 0 24 5.37258 24 12C24 18.6274 18.6274 24 12 24C5.37258 24 0 18.6274 0 12Z" fill="url(#paint0_linear_5061_3681)"/>
<g clip-path="url(#clip0_5061_3681)">
<path d="M15.07 5.26929L10.7064 9.30847C10.2546 9.72744 9.66669 9.95902 9.05639 9.96194L7.75575 9.96476L7.75153 5.26929H5.39999V18.688H6.6824C7.39938 18.688 8.06863 18.3005 8.41941 17.6643C8.42221 17.66 8.42361 17.6557 8.42642 17.6529C8.65933 17.2267 8.77579 16.3846 8.75334 15.8098C8.70283 14.4959 8.49517 14.1541 8.49517 14.1541C8.45168 15.0549 7.52845 15.1035 7.52845 15.1035C8.18509 14.4644 7.8273 13.9811 7.8273 13.9811C6.66416 14.8247 6.37372 13.9239 6.35128 13.8424C6.38776 13.8738 6.71888 14.1556 7.34746 13.2776C8.01251 12.3497 8.89925 10.8026 9.46332 10.4052C10.0287 10.0063 10.5647 10.0392 10.5647 10.0392C10.5647 10.0392 10.8734 9.613 11.6899 9.25841C12.5065 8.90672 13.0299 9.4229 13.0299 9.4229C12.1951 10.1092 11.0614 11.2359 10.9982 12.8501C10.9477 14.1569 13.7118 16.3989 13.2263 19.7103C13.5168 18.9583 13.6332 18.2048 13.5336 17.2725C13.4536 16.5205 12.978 14.9491 12.978 14.9491L15.6325 18.6866H18.5678L12.8306 10.6554L18.5678 5.26929H15.07Z" fill="white"/>
<path d="M9.72368 11.0471C9.53848 11.3602 9.53848 11.456 9.53848 11.456C9.53848 11.456 10.1867 11.3445 10.3621 10.5596C10.3635 10.5596 9.94816 10.6681 9.72368 11.0471Z" fill="white"/>
</g>
<defs>
<linearGradient id="paint0_linear_5061_3681" x1="35.9999" y1="27.0608" x2="17.3725" y2="-5.48045" gradientUnits="userSpaceOnUse">
<stop stop-color="#E40C5B"/>
<stop offset="1" stop-color="#FF4C3B"/>
</linearGradient>
<clipPath id="clip0_5061_3681">
<rect width="13.2" height="14.441" fill="white" transform="translate(5.39999 5.26929)"/>
</clipPath>
</defs>
</svg>