<svg width="24" height="24" viewBox="0 0 24 24" fill="none" xmlns="http://www.w3.org/2000/svg">
<g clip-path="url(#clip0_1_202)">
<circle cx="12" cy="12" r="11.5" fill="#1D2845" stroke="white"/>
<path d="M14.944 9.36371C14.3159 8.74477 13.469 8.39865 12.5872 8.40055H12.5535C12.1111 8.40276 11.6734 8.49209 11.2655 8.66345C10.8575 8.83481 10.4873 9.08484 10.176 9.39927C9.54733 10.0343 9.19663 10.893 9.20109 11.7866C9.20555 12.6802 9.5648 13.5354 10.1998 14.1641C10.8348 14.7928 11.6936 15.1435 12.5872 15.1391H12.6208C13.287 15.1321 13.9362 14.9278 14.4864 14.552C15.0365 14.1761 15.4629 13.6456 15.7115 13.0274C15.9602 12.4093 16.02 11.7313 15.8834 11.0792C15.7468 10.4271 15.4199 9.83008 14.944 9.36371Z" fill="url(#paint0_linear_1_202)"/>
<path d="M14.0241 8.95636C13.6291 8.85552 13.3118 8.93755 13.0541 9.20245C13.0221 9.23607 12.9925 9.27128 12.9645 9.30849C12.8972 9.39332 12.8404 9.46695 12.71 9.49736C12.5339 9.53258 12.3538 9.53978 12.1758 9.51937C12.1316 9.51262 12.0876 9.50408 12.0441 9.49376C11.9117 9.46335 11.8312 9.44534 11.672 9.5966C11.6224 9.64698 11.5776 9.70176 11.5379 9.76026C11.4671 9.8575 11.4007 9.94913 11.2914 9.99115C11.2406 10.01 11.1874 10.0212 11.1338 10.0248L11.1194 10.0184L11.1158 10.0256C11.0385 10.0274 10.9613 10.0225 10.8849 10.0108C10.8248 10.0019 10.7643 9.99653 10.7036 9.99475C10.786 9.8739 10.8585 9.74666 10.9197 9.61461C11.0309 9.597 11.1258 9.52417 11.2174 9.45255C11.2658 9.41253 11.3174 9.37652 11.3715 9.34531C11.5555 9.24407 11.6444 9.15844 11.8036 8.98357C11.9553 8.81751 12.1177 8.71467 12.315 8.61063C12.4135 8.56021 12.4991 8.48819 12.5651 8.39935C13.223 8.40415 13.8388 8.55741 14.3802 8.91555C14.3222 8.95156 14.2009 9.00078 14.0241 8.95636Z" fill="#DADADA"/>
<path d="M15.8503 11.3004C15.8038 11.2825 15.7589 11.2609 15.7159 11.2356C15.6495 11.1934 15.5758 11.1638 15.4986 11.1484L15.3017 11.0519C14.992 10.9983 14.8648 11.0387 14.5523 10.9511C14.407 10.9082 14.2558 10.8894 14.1045 10.8955L14.0969 10.8891L14.0913 10.8963C13.984 10.9011 13.876 10.9163 13.7552 10.9327L13.6719 10.9447C13.6383 10.9487 13.6007 10.9551 13.5583 10.9619C13.2914 11.0039 12.8448 11.0743 12.69 10.9007L12.6812 10.9087C12.4436 10.7687 12.173 10.6948 11.8973 10.6946C11.4679 10.6946 11.3331 10.5786 11.0878 10.3677C11.0461 10.3317 10.9997 10.2921 10.9489 10.25H11.0161C11.127 10.2885 11.2434 10.3081 11.3607 10.3081C11.3835 10.3081 11.4059 10.3069 11.4279 10.3049C11.4893 10.2982 11.5465 10.2707 11.5899 10.2268C11.6096 10.2096 11.63 10.1944 11.6512 10.18C11.6986 10.1518 11.7533 10.1384 11.8084 10.1416C11.8324 10.1416 11.8572 10.1396 11.8845 10.1364C12.0005 10.122 12.0829 10.0564 12.1622 9.99354C12.2358 9.93512 12.3054 9.8795 12.3999 9.86429C12.4235 9.86029 12.4471 9.85869 12.4719 9.85629C12.5345 9.85687 12.5964 9.84202 12.6519 9.81307C12.682 9.79405 12.7097 9.77148 12.7344 9.74585C12.7623 9.71336 12.7967 9.68695 12.8352 9.66822C12.9593 9.6258 13.0153 9.52337 13.0817 9.43813C13.1109 9.40052 13.2498 9.38011 13.287 9.3421C13.5671 9.05399 13.7912 8.95155 14.2201 9.06039C14.4386 9.11521 14.5226 9.12522 14.5959 9.0716C14.9562 9.33951 15.2593 9.67675 15.4875 10.0635C15.7156 10.4502 15.8642 10.8787 15.9244 11.3236C15.8992 11.3175 15.8745 11.3097 15.8503 11.3004ZM11.5859 14.2123C11.5819 14.1915 11.5799 14.1703 11.5799 14.1491C11.5792 14.0996 11.5737 14.0503 11.5635 14.0018C11.5403 13.8886 11.5079 13.8674 11.4675 13.8378C11.4333 13.8158 11.4038 13.7872 11.3807 13.7537C11.3402 13.6919 11.3105 13.6238 11.2926 13.5521L11.2898 13.5425C11.3194 13.5613 11.3499 13.5785 11.3815 13.5937C11.3967 13.6017 11.4151 13.6121 11.4387 13.6241C11.5255 13.6713 11.6452 13.7361 11.7056 13.7309C11.7577 13.7236 11.805 13.6967 11.838 13.6557C11.8661 13.6277 11.9577 13.6809 11.9965 13.6741C12.0681 13.6613 12.151 13.6405 12.2586 13.6845C12.3042 13.7029 12.3434 13.7181 12.3734 13.7285C12.4295 13.7457 12.4867 13.7702 12.5415 13.793C12.6319 13.8358 12.7276 13.867 12.826 13.8862C12.8808 13.8934 12.9361 13.897 12.9913 13.8962C13.0937 13.8902 13.1953 13.9118 13.2866 13.9586C13.4975 14.0639 13.5427 14.0723 13.7728 14.0499C13.9448 14.0327 14.1641 14.0162 14.3314 14.0435C14.489 14.0691 14.6339 14.1427 14.7747 14.2343C14.7747 14.2483 14.7955 14.296 14.7971 14.31C14.4824 14.5988 14.1123 14.8206 13.7092 14.962C13.3061 15.1035 12.8785 15.1615 12.4523 15.1327C12.4208 15.099 12.3863 15.0685 12.349 15.0414C12.3046 15.0139 12.2569 14.9921 12.207 14.9766C12.1418 14.9534 12.0725 14.929 12.0361 14.8878C11.9837 14.8298 11.9893 14.7653 11.9949 14.7029C12.003 14.6607 11.9994 14.6171 11.9845 14.5769C11.9533 14.5128 11.8861 14.4736 11.8144 14.4324C11.7719 14.4096 11.7315 14.3828 11.694 14.3524C11.6568 14.3233 11.6247 14.2881 11.5992 14.2483C11.6032 14.2371 11.5859 14.2123 11.5859 14.2123ZM10.7568 9.11041C10.7508 9.19564 10.7556 9.28168 10.7704 9.36651C10.7864 9.47815 10.8005 9.58419 10.758 9.70463L10.7536 9.71664H10.7496V9.72544C10.6928 9.8699 10.5604 10.0748 10.4975 10.1684C10.3551 10.1492 10.2895 10.0428 10.2194 9.93072C10.1776 9.85416 10.1231 9.78529 10.0582 9.72704C10.0261 9.70236 9.99244 9.6799 9.95734 9.65982C10.1988 9.35945 10.4898 9.10247 10.8177 8.89993C10.7856 8.96596 10.7656 9.03718 10.7568 9.11001V9.11041Z" fill="#DADADA"/>
<path d="M14.9721 14.1131C14.9669 14.0437 14.9639 13.9742 14.9633 13.9046C14.9592 13.5349 14.942 13.4136 14.6944 13.2059C14.5035 13.0451 14.2838 12.9658 14.2138 12.7262C14.175 12.5937 14.1738 12.4236 14.173 12.246C14.173 12.1679 14.173 12.0887 14.1682 12.0107C14.1866 11.9347 14.2142 11.861 14.2498 11.7914C14.2918 11.7006 14.359 11.6065 14.3446 11.5077C14.3326 11.4249 14.3446 11.4845 14.3086 11.3733C14.277 11.2752 14.2178 11.2208 14.1477 11.164C14.2802 11.1628 14.4122 11.1812 14.5399 11.2188C14.8536 11.3088 15.1473 11.1916 15.4586 11.2448L15.4898 11.2504C15.5635 11.2648 15.6335 11.2928 15.6967 11.3328C15.7407 11.3592 15.7868 11.3817 15.8348 11.4001C15.8656 11.4113 15.8976 11.4197 15.93 11.4257C15.9464 11.5397 15.9552 11.655 15.9552 11.7702C15.9565 12.6514 15.6115 13.4979 14.9945 14.1271L14.9721 14.1131ZM9.58284 12.757C9.61205 12.767 9.64046 12.777 9.66687 12.787C9.78371 12.827 9.89535 12.8814 9.99899 12.949C10.1082 13.0239 10.1935 13.0983 10.2559 13.2179C10.3231 13.346 10.3735 13.4288 10.5088 13.4996L10.5488 13.5209C10.7157 13.6073 10.8357 13.6697 10.9225 13.8382C10.9754 13.939 11.071 13.9822 11.1634 14.023C11.2138 14.0431 11.2623 14.0683 11.3083 14.0975L11.3267 14.1103L11.3603 14.1327C11.3747 14.1783 11.4075 14.2219 11.4884 14.2927C11.5324 14.328 11.5788 14.3592 11.6284 14.386C11.7024 14.4292 11.7725 14.47 11.8021 14.5304C11.8153 14.5692 11.8181 14.6105 11.8101 14.6505C11.8041 14.7249 11.7961 14.8085 11.8661 14.8862C11.9141 14.9394 11.9933 14.9678 12.0702 14.9954C12.1226 15.0114 12.1726 15.0338 12.2194 15.0626C12.2474 15.0826 12.2738 15.1054 12.2987 15.1299C11.6073 15.0706 10.9511 14.7996 10.4195 14.3538C9.88787 13.9079 9.50669 13.3089 9.32794 12.6385C9.39837 12.6945 9.4964 12.7282 9.58284 12.757ZM10.1206 10.0179C10.1783 10.1108 10.2379 10.2056 10.3427 10.25C10.2467 10.2668 10.2159 10.24 10.1146 10.3261C10.0606 10.3721 9.94457 10.3641 9.89575 10.4165C9.81292 10.5045 9.79332 10.6574 9.68768 10.7126C9.57643 10.7686 9.46079 10.8154 9.34195 10.8531C9.46279 10.4245 9.61085 10.1036 9.87975 9.76265C9.91096 9.78066 9.94097 9.80106 9.96938 9.82387C10.0302 9.87989 10.0814 9.94512 10.1206 10.0179Z" fill="#DADADA"/>
<path d="M14.381 13.2236L14.4034 13.242C14.6223 13.426 14.6815 13.4756 14.6843 13.7942C14.6843 13.8494 14.6871 13.9042 14.6908 13.9586C14.5539 13.8718 14.4102 13.8006 14.2558 13.7762C14.0849 13.7485 13.8632 13.765 13.6888 13.7818C13.4655 13.8042 13.5135 13.7445 13.3086 13.6417C13.1778 13.5769 13.0033 13.6285 12.9109 13.6281C12.8574 13.6289 12.8039 13.6257 12.7508 13.6185C12.6552 13.5997 12.5622 13.5692 12.4739 13.5277C12.4179 13.5045 12.4419 13.458 12.3843 13.44C12.3559 13.4308 12.235 13.4372 12.1902 13.4192C12.073 13.3712 11.9261 13.3124 11.8453 13.3268C11.8015 13.3378 11.7623 13.3627 11.7336 13.3976C11.7063 13.4334 11.6664 13.4574 11.622 13.4648C11.5712 13.4688 11.4539 13.4044 11.3739 13.3616C11.3545 13.351 11.3349 13.3408 11.3151 13.3308C11.2727 13.3096 11.2318 13.2857 11.1926 13.2592C11.1926 13.2564 11.191 13.2532 11.1902 13.2504L11.1834 13.2528C11.0912 13.1868 11.0037 13.1143 10.9217 13.0359C10.7553 12.8794 10.5556 12.7627 10.3375 12.6946C10.4748 12.6757 10.5896 12.6105 10.7077 12.5421C10.8058 12.48 10.9111 12.4303 11.0214 12.394C11.1558 12.3548 11.3095 12.354 11.4583 12.3532C11.6156 12.3532 11.7785 12.3512 11.9205 12.3044C12.0686 12.2552 12.1798 12.1483 12.2875 12.0455C12.4011 11.9367 12.5419 11.9199 12.702 11.8774C12.8301 11.8438 12.9917 11.7366 13.1878 11.7246C13.4311 11.7102 13.6824 11.6946 13.842 11.6334C13.9337 11.7486 13.9609 11.9119 13.9697 12.0855V12.0875C13.9729 12.1576 13.9737 12.2288 13.9737 12.2996C13.9737 12.4629 13.9761 12.6173 14.0121 12.741C14.0773 12.9683 14.2114 13.0815 14.381 13.2236ZM9.30714 12.5557C9.24597 12.3129 9.21506 12.0634 9.2151 11.813C9.2119 11.5489 9.23911 11.2852 9.29713 11.0275C9.42029 10.9913 9.54043 10.9456 9.65647 10.8907C9.7573 10.8387 9.83493 10.8215 9.91136 10.7398C9.95378 10.6926 9.99859 10.6478 10.0458 10.6054C10.2331 10.4465 10.4039 10.4681 10.5836 10.4913C10.6268 10.4969 10.6704 10.5021 10.7149 10.5049C10.7749 10.5534 10.8277 10.5317 10.8745 10.5722C11.0938 10.7606 11.2243 10.9531 11.6236 10.9531C11.9133 10.9531 12.139 10.9559 12.3679 11.0936C12.4362 11.1351 12.5029 11.1791 12.568 11.2256L12.6072 11.2532C12.7352 11.3448 12.8565 11.4313 13.0245 11.4585C13.0817 11.4665 13.1398 11.4689 13.1978 11.4661C13.3078 11.4641 13.4039 11.4621 13.4871 11.5473C13.3314 11.6029 13.0894 11.6177 12.8545 11.6314C12.6568 11.6438 12.4699 11.6554 12.3391 11.6894C12.171 11.7342 12.0498 11.8498 11.9325 11.9615C11.8229 12.0671 11.7192 12.166 11.5784 12.2128C11.4375 12.2596 11.2811 12.2592 11.1266 12.26C10.9722 12.2608 10.8209 12.262 10.6809 12.3028C10.5681 12.3395 10.4603 12.3901 10.3599 12.4533C10.2159 12.5361 10.0782 12.6153 9.89696 12.6053C9.845 12.5931 9.79253 12.5832 9.7397 12.5757L9.72489 12.5717V12.5737C9.58634 12.5566 9.44665 12.5506 9.30714 12.5557ZM7.63331 8.19487C7.30345 8.19733 6.97372 8.18089 6.64574 8.14565C5.96548 8.06562 5.61295 7.89516 5.53652 7.60785C5.41368 7.15768 6.06872 6.77954 6.57211 6.53225C8.48803 5.5979 12.6896 4.62833 15.9388 4.37064C16.9436 4.29101 17.7875 4.28621 18.3833 4.35583C19.0636 4.43626 19.4161 4.60673 19.4925 4.89363C19.615 5.3438 18.9603 5.72194 18.457 5.96924C16.541 6.90359 12.3395 7.87355 9.08985 8.13085C8.55525 8.17366 8.06547 8.19487 7.63331 8.19487ZM17.3862 4.71277C16.9996 4.71277 16.533 4.73077 15.9696 4.77519C12.7624 5.03088 8.62568 5.98164 6.74778 6.89758C5.94108 7.29133 5.92427 7.50261 5.92467 7.50261C5.95108 7.60105 6.56331 7.92677 9.05864 7.72869C12.2662 7.4746 16.403 6.52224 18.2809 5.6063C19.0876 5.21255 19.1044 5.00287 19.104 5.00127C19.0832 4.92524 18.7123 4.71277 17.3862 4.71277ZM7.6197 19.2646C7.28971 19.2671 6.95985 19.2506 6.63173 19.2154C5.95188 19.1354 5.59935 18.9645 5.52292 18.6776C5.39847 18.229 6.05352 17.8505 6.55771 17.6048C8.47362 16.67 12.6752 15.7005 15.9244 15.4432C16.9288 15.3632 17.7731 15.3583 18.3689 15.4284C19.0488 15.5084 19.4017 15.6789 19.4797 15.9662C19.6022 16.4159 18.9475 16.7945 18.4442 17.0418C16.5282 17.9761 12.3267 18.9457 9.07705 19.2034C8.54085 19.243 8.05107 19.2646 7.6197 19.2646ZM17.3714 15.7825C16.9852 15.7825 16.5186 15.8001 15.9556 15.8449C12.748 16.099 8.61087 17.0514 6.73337 17.9673C5.92667 18.3611 5.90946 18.5708 5.91026 18.5724C5.93707 18.6704 6.5473 18.9965 9.04424 18.7984C12.2514 18.5439 16.3886 17.592 18.2661 16.676C19.0728 16.2823 19.0904 16.071 19.0896 16.071C19.0684 15.995 18.6978 15.7825 17.3714 15.7825Z" fill="#DADADA"/>
</g>
<defs>
<linearGradient id="paint0_linear_1_202" x1="12.5856" y1="15.1399" x2="12.5856" y2="8.40055" gradientUnits="userSpaceOnUse">
<stop stop-color="#603211"/>
<stop offset="0.17" stop-color="#DD7D26"/>
<stop offset="0.35" stop-color="#603211"/>
<stop offset="0.54" stop-color="#9C3520"/>
<stop offset="0.77" stop-color="#DD7D26"/>
<stop offset="1" stop-color="#603211"/>
</linearGradient>
<clipPath id="clip0_1_202">
<rect width="24" height="24" fill="white"/>
</clipPath>
</defs>
</svg>
