
<svg width="24" height="24" viewBox="0 0 24 24" fill="none" xmlns="http://www.w3.org/2000/svg">
<path d="M0 12C0 5.37258 5.37258 0 12 0C18.6274 0 24 5.37258 24 12C24 18.6274 18.6274 24 12 24C5.37258 24 0 18.6274 0 12Z" fill="black"/>
<path d="M18.3807 7.63734C18.1538 7.45843 17.8833 7.21407 17.3902 7.15298C16.9276 7.09189 16.4564 7.4017 16.1378 7.6068C15.8193 7.81189 15.2171 8.41407 14.9684 8.59734C14.7196 8.78061 14.0825 8.9508 13.0571 9.56607C12.0316 10.1813 8.00837 12.7646 8.00837 12.7646L9.05564 12.7777L4.38655 15.1821H4.85346L4.18146 15.6926C4.18146 15.6926 4.77491 15.8497 5.27237 15.5355V15.6795C5.27237 15.6795 10.8316 13.489 11.9051 14.0562L11.2505 14.2482C11.3073 14.2482 12.3633 14.3181 12.3633 14.3181C12.3633 14.3181 12.3982 14.977 13.0353 15.4002C13.6724 15.8192 13.6855 16.0504 13.6855 16.0504C13.6855 16.0504 13.3538 16.1857 13.3538 16.3559C13.3538 16.3559 13.8425 16.2075 14.2964 16.2206C14.7502 16.2337 15.1473 16.3559 15.1473 16.3559C15.1473 16.3559 15.1124 16.1726 14.6716 16.0504C14.2265 15.9239 13.7945 15.4482 13.5807 15.1864C13.3669 14.9246 13.2185 14.4577 13.4018 13.9908C13.5545 13.5937 14.0869 13.3755 15.1865 12.8082C16.4825 12.1362 16.7793 11.6388 16.9625 11.2504C17.1458 10.8621 17.4164 10.0897 17.5691 9.72752C17.7611 9.26061 17.9967 9.01189 18.1931 8.86352C18.3851 8.71516 19.2622 8.38789 19.2622 8.38789C19.2622 8.38789 18.5945 7.80752 18.3807 7.63734Z" fill="white"/>
</svg>