<svg width="24" height="24" viewBox="0 0 24 24" fill="none" xmlns="http://www.w3.org/2000/svg">
<path d="M0 12C0 5.37258 5.37258 0 12 0C18.6274 0 24 5.37258 24 12C24 18.6274 18.6274 24 12 24C5.37258 24 0 18.6274 0 12Z" fill="#151C2F"/>
<path d="M0 12C0 5.37258 5.37258 0 12 0C18.6274 0 24 5.37258 24 12C24 18.6274 18.6274 24 12 24C5.37258 24 0 18.6274 0 12Z" fill="#E6007A"/>
<path d="M12 7.07668C13.6852 7.07668 15.0512 6.28181 15.0512 5.30128C15.0512 4.32075 13.6852 3.52588 12 3.52588C10.3148 3.52588 8.94876 4.32075 8.94876 5.30128C8.94876 6.28181 10.3148 7.07668 12 7.07668Z" fill="white"/>
<path d="M12 20.4492C13.6852 20.4492 15.0512 19.6544 15.0512 18.6738C15.0512 17.6933 13.6852 16.8984 12 16.8984C10.3148 16.8984 8.94876 17.6933 8.94876 18.6738C8.94876 19.6544 10.3148 20.4492 12 20.4492Z" fill="white"/>
<path d="M7.74722 9.53212C8.58979 8.07273 8.58446 6.49223 7.7353 6.00197C6.88614 5.5117 5.51471 6.29733 4.67213 7.75672C3.82956 9.2161 3.8349 10.7966 4.68406 11.2869C5.53322 11.7771 6.90464 10.9915 7.74722 9.53212Z" fill="white"/>
<path d="M19.328 16.2184C20.1705 14.759 20.1652 13.1785 19.316 12.6882C18.4669 12.198 17.0955 12.9836 16.2529 14.443C15.4103 15.9024 15.4156 17.4829 16.2648 17.9731C17.114 18.4634 18.4854 17.6778 19.328 16.2184Z" fill="white"/>
<path d="M7.7353 17.9731C8.58446 17.4829 8.58979 15.9024 7.74722 14.443C6.90464 12.9836 5.53322 12.198 4.68406 12.6882C3.8349 13.1785 3.82956 14.759 4.67214 16.2184C5.51471 17.6778 6.88614 18.4634 7.7353 17.9731Z" fill="white"/>
<path d="M19.316 11.2869C20.1651 10.7966 20.1705 9.21609 19.3279 7.7567C18.4853 6.29731 17.1139 5.51168 16.2647 6.00195C15.4156 6.49221 15.4102 8.07271 16.2528 9.5321C17.0954 10.9915 18.4668 11.7771 19.316 11.2869Z" fill="white"/>
</svg>