<svg width="80" height="80" viewBox="0 0 80 80" fill="none" xmlns="http://www.w3.org/2000/svg">
<rect width="80" height="80" rx="40" fill="#151C2F"/>
<rect width="80" height="80" rx="40" fill="#E6007A"/>
<path d="M40 23.5892C45.6172 23.5892 50.1708 20.9396 50.1708 17.6712C50.1708 14.4028 45.6172 11.7532 40 11.7532C34.3828 11.7532 29.8292 14.4028 29.8292 17.6712C29.8292 20.9396 34.3828 23.5892 40 23.5892Z" fill="white"/>
<path d="M40 68.164C45.6172 68.164 50.1708 65.5144 50.1708 62.246C50.1708 58.9776 45.6172 56.328 40 56.328C34.3828 56.328 29.8292 58.9776 29.8292 62.246C29.8292 65.5144 34.3828 68.164 40 68.164Z" fill="white"/>
<path d="M25.824 31.7741C28.6326 26.9095 28.6148 21.6412 25.7843 20.0069C22.9538 18.3727 18.3824 20.9915 15.5738 25.8561C12.7652 30.7207 12.783 35.9891 15.6135 37.6233C18.444 39.2575 23.0155 36.6387 25.824 31.7741Z" fill="white"/>
<path d="M64.4265 54.0615C67.2351 49.1968 67.2173 43.9285 64.3868 42.2943C61.5563 40.6601 56.9848 43.2788 54.1763 48.1435C51.3677 53.0081 51.3855 58.2764 54.216 59.9106C57.0465 61.5448 61.6179 58.9261 64.4265 54.0615Z" fill="white"/>
<path d="M25.7843 59.9103C28.6148 58.2761 28.6326 53.0078 25.824 48.1432C23.0154 43.2786 18.444 40.6598 15.6135 42.294C12.7829 43.9282 12.7652 49.1966 15.5737 54.0612C18.3823 58.9258 22.9537 61.5446 25.7843 59.9103Z" fill="white"/>
<path d="M64.3865 37.6235C67.2171 35.9893 67.2349 30.7209 64.4263 25.8563C61.6177 20.9917 57.0463 18.3729 54.2157 20.0071C51.3852 21.6413 51.3674 26.9097 54.176 31.7743C56.9846 36.6389 61.556 39.2577 64.3865 37.6235Z" fill="white"/>
</svg>
