<svg width="24" height="24" viewBox="0 0 24 24" fill="none" xmlns="http://www.w3.org/2000/svg">
<g clip-path="url(#clip0_258_73)">
<path d="M23.638 14.904C22.036 21.334 15.525 25.244 9.09601 23.64C2.67001 22.05 -1.24399 15.525 0.362007 9.10499C1.96201 2.66999 8.47501 -1.24301 14.9 0.357986C21.33 1.96299 25.242 8.47299 23.638 14.906V14.904V14.904ZM17.288 10.291C17.528 8.70099 16.314 7.84099 14.648 7.26099L15.188 5.10799L13.873 4.77799L13.348 6.88499C13.003 6.79799 12.643 6.71799 12.284 6.63499L12.81 4.50799L11.49 4.17799L10.95 6.34299C10.665 6.27599 10.385 6.21099 10.11 6.14299L8.29501 5.69299L7.94501 7.09999C7.94501 7.09999 8.92001 7.32499 8.90001 7.33599C9.43501 7.47199 9.53001 7.82199 9.51501 8.10199L8.03801 14.022C7.96301 14.188 7.79801 14.428 7.42401 14.336C7.43901 14.356 6.46401 14.096 6.46401 14.096L5.80401 15.606L7.51401 16.032L8.44401 16.274L7.90401 18.464L9.22401 18.791L9.76401 16.621C10.124 16.721 10.469 16.811 10.814 16.894L10.304 19.048L11.624 19.378L12.169 17.188C14.409 17.615 16.099 17.445 16.809 15.414C17.379 13.777 16.779 12.834 15.592 12.218C16.446 12.025 17.092 11.458 17.272 10.288H17.282L17.288 10.291ZM14.278 14.511C13.874 16.151 11.121 15.261 10.228 15.041L10.948 12.141C11.844 12.371 14.705 12.811 14.278 14.511V14.511ZM14.688 10.271C14.318 11.761 12.026 11.006 11.283 10.821L11.937 8.18099C12.681 8.36099 15.074 8.70499 14.687 10.265V10.271H14.688Z" fill="#F7931A"/>
</g>
<defs>
<clipPath id="clip0_258_73">
<rect width="24" height="24" fill="white"/>
</clipPath>
</defs>
</svg>
