<svg width="80" height="80" viewBox="0 0 80 80" fill="none" xmlns="http://www.w3.org/2000/svg">
<rect width="80" height="80" rx="40" fill="black"/>
<path d="M61.2691 25.458C60.5127 24.8617 59.6109 24.0471 57.9672 23.8435C56.4254 23.6399 54.8545 24.6726 53.7927 25.3562C52.7309 26.0399 50.7236 28.0471 49.8945 28.658C49.0654 29.269 46.9418 29.8362 43.5236 31.8871C40.1054 33.938 26.6945 42.549 26.6945 42.549L30.1854 42.5926L14.6218 50.6071H16.1782L13.9382 52.309C13.9382 52.309 15.9163 52.8326 17.5745 51.7853V52.2653C17.5745 52.2653 36.1054 44.9635 39.6836 46.8544L37.5018 47.4944C37.6909 47.4944 41.2109 47.7271 41.2109 47.7271C41.2109 47.7271 41.3272 49.9235 43.4509 51.3344C45.5745 52.7308 45.6182 53.5017 45.6182 53.5017C45.6182 53.5017 44.5127 53.9526 44.5127 54.5199C44.5127 54.5199 46.1418 54.0253 47.6545 54.069C49.1672 54.1126 50.4909 54.5199 50.4909 54.5199C50.4909 54.5199 50.3745 53.909 48.9054 53.5017C47.4218 53.0799 45.9818 51.4944 45.2691 50.6217C44.5563 49.749 44.0618 48.1926 44.6727 46.6362C45.1818 45.3126 46.9563 44.5853 50.6218 42.6944C54.9418 40.4544 55.9309 38.7962 56.5418 37.5017C57.1527 36.2071 58.0545 33.6326 58.5636 32.4253C59.2036 30.869 59.9891 30.0399 60.6436 29.5453C61.2836 29.0508 64.2072 27.9599 64.2072 27.9599C64.2072 27.9599 61.9818 26.0253 61.2691 25.458Z" fill="white"/>
</svg>
