<svg width="161" height="157" viewBox="0 0 161 157" fill="none" xmlns="http://www.w3.org/2000/svg">
<path d="M130.895 126.716H95.8703L95.8473 126.699L95.5715 126.486L52.1672 92.6064L69.9324 78.3579L130.602 126.486L130.895 126.716Z" fill="#4A9079"/>
<path d="M130.895 30H95.8703L95.8473 30.0173L95.5715 30.2303L52.1672 64.11L69.9324 78.3584L130.602 30.2303L130.895 30Z" fill="#4A9079"/>
<path d="M52.1733 80.5058V92.5724V92.6127L52.179 126.487V126.717L52.1561 126.7L51.8859 126.487L30.7643 109.791L30.7126 109.751L30.408 109.515V47.2018L30.7126 46.9657L30.7643 46.9255L51.8859 30.2303L52.1561 30.0173L52.179 30V30.2303L52.1733 64.1042V64.1445V78.3584V80.5058Z" fill="#4A9079"/>
</svg>
