<svg width="501" height="433" viewBox="0 0 501 433" fill="none" xmlns="http://www.w3.org/2000/svg">
<path fill-rule="evenodd" clip-rule="evenodd" d="M398.085 303.057L342.032 206.962L327.668 290.102C327.206 292.818 326.978 295.569 326.986 298.324C326.99 301.056 327.23 303.782 327.704 306.474C328.22 309.15 328.953 311.78 329.894 314.34C330.862 316.956 332.063 319.481 333.485 321.885C339.847 332.796 350.319 340.759 362.6 344.022C374.881 347.285 387.967 345.583 398.983 339.289L440.206 315.728L499.599 417.731C500.519 419.272 501.003 421.03 501 422.821C500.994 424.617 500.513 426.38 499.606 427.935C498.699 429.49 497.397 430.782 495.829 431.683C494.261 432.555 492.492 433.009 490.694 433C490.694 433 385.05 433 356.754 433V402.997H456.186L429.182 356.728L414.029 365.413C405.191 370.498 395.43 373.812 385.302 375.165C364.685 377.846 343.839 372.303 327.345 359.754C319.201 353.554 312.368 345.826 307.236 337.011C304.99 333.15 303.092 329.101 301.562 324.91C299.993 320.69 298.791 316.343 297.971 311.919C296.415 303.065 296.415 294.01 297.971 285.155L326.268 119.977L425.017 289.497L398.768 304.516L397.906 303.057H398.085ZM192.364 149.482L193.189 148.023L166.94 133.003L68.1909 302.523L226.585 244.51C235.099 241.39 243.007 236.839 249.961 231.057C253.423 228.138 256.63 224.935 259.549 221.483C262.437 218.069 265.02 214.413 267.269 210.556C272.407 201.728 275.739 191.983 277.075 181.878C278.412 171.772 277.727 161.505 275.059 151.663C272.392 141.82 267.793 132.595 261.528 124.514C255.262 116.433 247.452 109.655 238.542 104.566L223.389 95.9177L250.392 49.6494L300.09 135.068L326.303 120.084C312.155 95.7753 259.405 5.16069 259.298 5.08951C258.448 3.55588 257.211 2.26792 255.707 1.35246C254.13 0.466235 252.348 0.000256352 250.536 0C248.719 0.00111509 246.934 0.480092 245.365 1.38805C243.881 2.25033 242.644 3.47578 241.774 4.94714L182.165 106.986L223.353 130.583C231.557 135.306 238.172 142.324 242.369 150.757C246.566 159.191 248.158 168.664 246.945 177.99C246.097 184.171 244.048 190.129 240.912 195.537C239.501 197.953 237.891 200.25 236.101 202.406C234.348 204.492 232.413 206.422 230.319 208.172C228.208 209.936 225.95 211.519 223.568 212.905C221.164 214.307 218.641 215.498 216.028 216.464L136.31 245.685L192.364 149.589V149.482ZM161.087 402.783H159.292V432.858H356.79L226.908 325.871C223.427 322.997 219.702 320.425 215.776 318.183C207.883 313.742 199.286 310.661 190.353 309.072C185.917 308.314 181.424 307.933 176.923 307.933C166.642 307.924 156.46 309.925 146.96 313.821C137.46 317.717 128.829 323.432 121.561 330.64C114.293 337.847 108.531 346.404 104.604 355.821C100.677 365.239 98.6633 375.331 98.6775 385.521V402.997H44.8142L94.5479 317.578L68.3345 302.595C54.1864 326.868 1.36454 417.447 1.36454 417.553C0.471808 419.104 0.00154694 420.858 0 422.643C0.0129831 424.438 0.482293 426.2 1.36454 427.768C2.28138 429.299 3.58475 430.567 5.14628 431.447C6.70781 432.327 8.47366 432.788 10.2699 432.786H128.985V385.521C128.975 379.278 130.208 373.093 132.614 367.322C135.019 361.551 138.549 356.307 143.002 351.891C147.455 347.474 152.743 343.971 158.564 341.583C164.384 339.194 170.623 337.967 176.923 337.972C179.739 337.97 182.55 338.208 185.325 338.684C188.031 339.119 190.689 339.81 193.261 340.748C198.496 342.59 203.359 345.337 207.625 348.863L273.087 402.783H161.087Z" fill="white"/>
</svg>
