<svg width="72" height="72" viewBox="0 0 72 72" fill="none" xmlns="http://www.w3.org/2000/svg">
<rect x="1" y="1" width="70" height="70" rx="35" fill="black"/>
<rect x="1" y="1" width="70" height="70" rx="35" stroke="url(#paint0_linear_805_13)" stroke-width="2"/>
<path d="M49.1671 40.0938L59.5614 24.7286C59.6316 24.6161 59.672 24.4877 59.6787 24.3553C59.6854 24.2229 59.6582 24.091 59.5998 23.9721C59.5413 23.8531 59.4535 23.7511 59.3446 23.6756C59.2357 23.6001 59.1093 23.5536 58.9775 23.5406L38.4614 21.3595L49.1671 40.0938Z" fill="url(#paint1_linear_805_13)"/>
<path d="M58.9367 30.2196L51.5984 42.2742L59.1508 46.7922C59.2099 46.8312 59.2785 46.8533 59.3492 46.8561C59.4199 46.859 59.4901 46.8425 59.5521 46.8085C59.6142 46.7744 59.6658 46.7241 59.7014 46.6629C59.737 46.6017 59.7553 46.532 59.7542 46.4612L59.7542 30.4144C59.767 30.3607 59.7691 30.305 59.7603 30.2504C59.7516 30.1959 59.7322 30.1437 59.7033 30.0967C59.6744 30.0496 59.6365 30.0088 59.5918 29.9764C59.5471 29.9441 59.4964 29.9208 59.4428 29.908C59.3891 29.8952 59.3334 29.8932 59.2789 29.9019C59.2244 29.9106 59.1722 29.93 59.1252 29.959C59.0782 29.9879 59.0374 30.0258 59.005 30.0705C58.9727 30.1153 58.9495 30.1659 58.9367 30.2196Z" fill="url(#paint2_linear_805_13)"/>
<path d="M57.8846 19.5485L38.7116 10.9019C38.5918 10.8456 38.4596 10.8208 38.3275 10.8298C38.1953 10.8389 38.0677 10.8815 37.9567 10.9536C37.8456 11.0257 37.7547 11.125 37.6927 11.2421C37.6307 11.3591 37.5995 11.49 37.6021 11.6225V18.0879L57.6511 20.2885C57.7461 20.3097 57.8457 20.2945 57.9301 20.2458C58.0145 20.1971 58.0776 20.1186 58.1069 20.0256C58.1363 19.9327 58.1297 19.8322 58.0886 19.7438C58.0474 19.6555 57.9746 19.5858 57.8846 19.5485Z" fill="url(#paint3_linear_805_13)"/>
<path d="M49.8669 44.9623L42.0809 59.0422C41.9957 59.1911 41.9607 59.3635 41.9811 59.5338C42.0015 59.7042 42.0762 59.8634 42.1942 59.988C42.3121 60.1125 42.467 60.1958 42.6359 60.2253C42.8049 60.2549 42.9788 60.2293 43.132 60.1522L58.0033 50.4151C58.0596 50.3801 58.1061 50.3314 58.1383 50.2735C58.1706 50.2155 58.1875 50.1503 58.1875 50.084C58.1875 50.0177 58.1706 49.9525 58.1383 49.8946C58.1061 49.8366 58.0596 49.7879 58.0033 49.7529L49.8669 44.9623Z" fill="url(#paint4_linear_805_13)"/>
<path d="M36.0249 43.852H25.2608L34.6818 60.4441C34.8229 60.6737 35.0205 60.8633 35.2556 60.9948C35.4907 61.1263 35.7556 61.1953 36.0249 61.1953C36.2943 61.1953 36.5592 61.1263 36.7943 60.9948C37.0294 60.8633 37.2269 60.6737 37.368 60.4441L46.7891 43.852H36.0249Z" fill="url(#paint5_linear_805_13)"/>
<path d="M12.9786 46.7922L20.4531 42.2547L13.1148 30.2196C13.0655 30.1511 12.9963 30.0996 12.9165 30.0721C12.8368 30.0446 12.7505 30.0424 12.6695 30.0658C12.5885 30.0893 12.5167 30.1373 12.464 30.2031C12.4113 30.269 12.3803 30.3496 12.3752 30.4338L12.3752 46.4612C12.3741 46.532 12.3924 46.6017 12.428 46.6629C12.4636 46.7241 12.5152 46.7744 12.5772 46.8085C12.6393 46.8425 12.7094 46.859 12.7802 46.8561C12.8509 46.8533 12.9195 46.8312 12.9786 46.7922Z" fill="url(#paint6_linear_805_13)"/>
<path d="M22.187 44.9621L14.148 49.6944C14.0916 49.7293 14.0451 49.778 14.0129 49.836C13.9807 49.8939 13.9637 49.9591 13.9637 50.0254C13.9637 50.0917 13.9807 50.1569 14.0129 50.2149C14.0451 50.2728 14.0916 50.3216 14.148 50.3565L29.0192 60.0936C29.1724 60.1707 29.3464 60.1963 29.5153 60.1668C29.6842 60.1372 29.8391 60.0539 29.9571 59.9294C30.075 59.8048 30.1497 59.6456 30.1701 59.4752C30.1905 59.3049 30.1555 59.1325 30.0703 58.9836L22.2843 44.9037L22.187 44.9621Z" fill="url(#paint7_linear_805_13)"/>
<path d="M14.4001 20.2885L34.4491 18.0879V11.6225C34.4517 11.49 34.4205 11.3591 34.3585 11.2421C34.2965 11.125 34.2056 11.0257 34.0945 10.9536C33.9835 10.8815 33.8559 10.8389 33.7237 10.8298C33.5916 10.8208 33.4594 10.8456 33.3396 10.9019L14.1666 19.5485C14.0766 19.5858 14.0038 19.6555 13.9627 19.7438C13.9215 19.8322 13.9149 19.9327 13.9443 20.0256C13.9736 20.1186 14.0367 20.1971 14.1211 20.2458C14.2055 20.2945 14.3051 20.3097 14.4001 20.2885Z" fill="url(#paint8_linear_805_13)"/>
<path d="M22.888 40.0938L33.5938 21.3595L13.0777 23.5406C12.9458 23.5536 12.8195 23.6001 12.7106 23.6756C12.6017 23.7511 12.5138 23.8531 12.4554 23.9721C12.3969 24.091 12.3697 24.2229 12.3764 24.3553C12.3832 24.4877 12.4235 24.6161 12.4937 24.7286L22.888 40.0938Z" fill="url(#paint9_linear_805_13)"/>
<defs>
<linearGradient id="paint0_linear_805_13" x1="36" y1="0" x2="36" y2="72" gradientUnits="userSpaceOnUse">
<stop stop-color="#5586EE"/>
<stop offset="1" stop-color="#34AA60"/>
</linearGradient>
<linearGradient id="paint1_linear_805_13" x1="49.0705" y1="40.0938" x2="49.0705" y2="21.3595" gradientUnits="userSpaceOnUse">
<stop stop-color="#54ADFF"/>
<stop offset="1" stop-color="#5440D0"/>
</linearGradient>
<linearGradient id="paint2_linear_805_13" x1="55.682" y1="46.8564" x2="55.682" y2="29.8966" gradientUnits="userSpaceOnUse">
<stop stop-color="#54ADFF"/>
<stop offset="1" stop-color="#28A925"/>
</linearGradient>
<linearGradient id="paint3_linear_805_13" x1="47.8635" y1="20.2979" x2="47.8635" y2="10.828" gradientUnits="userSpaceOnUse">
<stop stop-color="#54ADFF"/>
<stop offset="1" stop-color="#28A925"/>
</linearGradient>
<linearGradient id="paint4_linear_805_13" x1="50.0815" y1="60.2373" x2="50.0815" y2="44.9623" gradientUnits="userSpaceOnUse">
<stop stop-color="#54ADFF"/>
<stop offset="1" stop-color="#28A925"/>
</linearGradient>
<linearGradient id="paint5_linear_805_13" x1="36.0249" y1="61.1953" x2="36.0249" y2="43.852" gradientUnits="userSpaceOnUse">
<stop stop-color="#54ADFF"/>
<stop offset="1" stop-color="#5440D0"/>
</linearGradient>
<linearGradient id="paint6_linear_805_13" x1="16.4141" y1="46.8564" x2="16.4141" y2="30.0497" gradientUnits="userSpaceOnUse">
<stop stop-color="#54ADFF"/>
<stop offset="1" stop-color="#28A925"/>
</linearGradient>
<linearGradient id="paint7_linear_805_13" x1="22.0698" y1="60.1787" x2="22.0698" y2="44.9037" gradientUnits="userSpaceOnUse">
<stop stop-color="#54ADFF"/>
<stop offset="1" stop-color="#28A925"/>
</linearGradient>
<linearGradient id="paint8_linear_805_13" x1="24.1877" y1="20.2979" x2="24.1877" y2="10.828" gradientUnits="userSpaceOnUse">
<stop stop-color="#54ADFF"/>
<stop offset="1" stop-color="#28A925"/>
</linearGradient>
<linearGradient id="paint9_linear_805_13" x1="22.9846" y1="40.0938" x2="22.9846" y2="21.3595" gradientUnits="userSpaceOnUse">
<stop stop-color="#54ADFF"/>
<stop offset="1" stop-color="#5440D0"/>
</linearGradient>
</defs>
</svg>
