<svg width="24" height="24" viewBox="0 0 24 24" fill="none" xmlns="http://www.w3.org/2000/svg">
<path d="M0 12C0 5.37258 5.37258 0 12 0C18.6274 0 24 5.37258 24 12C24 18.6274 18.6274 24 12 24C5.37258 24 0 18.6274 0 12Z" fill="#F0B90B"/>
<path fill-rule="evenodd" clip-rule="evenodd" d="M12 3.67798L7.57924 6.22752L9.20452 7.16939L12 5.56171L14.7955 7.16939L16.4208 6.22752L12 3.67798ZM14.7955 8.501L16.4208 9.44287V11.3266L13.6253 12.9343V16.1496L12 17.0915L10.3747 16.1496V12.9343L7.57924 11.3266V9.44287L9.20452 8.501L12 10.1086L14.7955 8.501ZM16.4208 12.6582V14.5419L14.7955 15.4838V13.6L16.4208 12.6582ZM14.7792 16.8154L17.5748 15.2077V11.9924L19.2 11.0505V16.1496L14.7792 18.6991V16.8154ZM17.5748 8.77706L15.9494 7.83519L17.5748 6.89332L19.2 7.83519V9.71893L17.5748 10.6608V8.77706ZM10.3747 19.3812V17.4975L12 18.4393L13.6253 17.4975V19.3812L12 20.323L10.3747 19.3812ZM9.20452 15.4838L7.57924 14.5419V12.6582L9.20452 13.6V15.4838ZM12 8.77706L10.3747 7.83519L12 6.89332L13.6253 7.83519L12 8.77706ZM8.05056 7.83519L6.42527 8.77706V10.6608L4.79999 9.71893V7.83519L6.42527 6.89332L8.05056 7.83519ZM4.79999 11.0505L6.42527 11.9924V15.2077L9.22075 16.8154V18.6991L4.79999 16.1496V11.0505Z" fill="white"/>
</svg>