<svg width="640" height="640" viewBox="0 0 640 640" fill="none" xmlns="http://www.w3.org/2000/svg">
<mask id="mask0_377_743" style="mask-type:luminance" maskUnits="userSpaceOnUse" x="0" y="0" width="640" height="640">
<path d="M320 640C496.731 640 640 496.731 640 320C640 143.269 496.731 0 320 0C143.269 0 0 143.269 0 320C0 496.731 143.269 640 320 640Z" fill="white"/>
</mask>
<g mask="url(#mask0_377_743)">
<rect x="-107.454" y="-288.246" width="778.397" height="1167.6" fill="black"/>
</g>
<path d="M491.279 294.21C477.395 296.342 463.547 292.545 449.495 278.589C426.854 256.115 389.346 261.314 367.651 285.992C346.807 309.687 348.544 346.86 371.509 369.082C394.605 391.411 432.352 392.154 454.011 368.638C463.104 358.767 471.837 355.137 484.475 356.204C495.257 357.114 506.23 357.078 517.023 356.228C528.667 355.317 530.093 358.791 526.056 369.261C506.17 420.869 455.616 451.273 397.48 445.858C347.035 441.15 301.98 397.317 293.666 344.859C284.178 284.974 321.65 224.549 378.061 208.772C438.941 191.75 500.3 220.896 524.45 278.289C531.147 294.21 531.147 294.21 514.388 294.21C507.955 294.21 501.546 294.21 491.279 294.21Z" fill="white"/>
<path d="M266.3 237.434C258.501 245.089 249.912 251.749 240.017 254.241C233.764 255.822 227.211 255.571 220.778 255.978C189.967 257.919 170.895 290.227 172.86 318.882C175.016 350.364 202.641 375.305 234.59 374.622C254.452 374.203 273.595 363.625 284.149 346.722C296.332 327.184 286.94 303.968 303.424 286.741C310.552 279.302 319.261 273.348 325.49 265.142C327.395 262.638 329.12 259.859 331.756 258.134C338.248 253.881 341.219 259.859 343.519 264.974C366.173 315.432 352.18 372.742 307.413 410.213C268.552 442.738 205.708 443.888 162.594 412.861C113.382 377.45 96.8384 308.292 125.349 257.128C139.725 231.324 162.797 210.755 190.59 200.489C221.545 189.049 252.176 192.654 282.604 203.712C284.904 204.55 287.336 205.484 288.773 207.461C291.325 210.935 288.138 214.289 285.766 216.685C279.669 222.891 273.296 230.569 266.3 237.434Z" fill="white"/>
<path d="M417.597 359.369V310.541C417.597 309.858 418.16 309.295 418.843 309.295H528.191V360.615H418.843C418.16 360.615 417.597 360.064 417.597 359.369Z" fill="white"/>
</svg>
