<?xml version="1.0" encoding="utf-8"?>
<!-- Generator: Adobe Illustrator 24.3.0, SVG Export Plug-In . SVG Version: 6.00 Build 0)  -->
<svg version="1.1" id="Layer_1" xmlns="http://www.w3.org/2000/svg" xmlns:xlink="http://www.w3.org/1999/xlink" x="0px" y="0px"
	 viewBox="0 0 283.46 283.46" style="enable-background:new 0 0 283.46 283.46;" xml:space="preserve">
<style type="text/css">
	.st0{fill:#FFFFFF;}
</style>
<g>
	<g>
		<path class="st0" d="M141.73,283.46c-19.13,0-37.69-3.75-55.17-11.14c-16.88-7.14-32.03-17.36-45.05-30.37
			c-13.01-13.01-23.23-28.17-30.37-45.05C3.75,179.42,0,160.86,0,141.73s3.75-37.69,11.14-55.17c7.14-16.88,17.36-32.03,30.37-45.05
			C54.53,28.5,69.68,18.28,86.56,11.14C104.04,3.75,122.6,0,141.73,0s37.69,3.75,55.17,11.14c16.88,7.14,32.03,17.36,45.05,30.37
			c13.01,13.01,23.23,28.17,30.37,45.05c7.39,17.48,11.14,36.04,11.14,55.17s-3.75,37.69-11.14,55.17
			c-7.14,16.88-17.36,32.03-30.37,45.05c-13.01,13.01-28.17,23.23-45.05,30.37C179.42,279.72,160.86,283.46,141.73,283.46z"/>
	</g>
	<g>
		<circle cx="141.73" cy="141.73" r="134.22"/>
	</g>
	<g>
		<path class="st0" d="M234.89,97.01H209.2c-1.69-5.45-4.7-10.6-9.03-14.94c-4.25-4.25-9.37-7.33-14.94-9.05V47.35h-18.25v24.87
			c-6.44,1.4-12.33,4.59-17.08,9.34l-12.16,12.16c-3.56,3.56-3.56,9.34,0,12.91c3.56,3.56,9.34,3.56,12.91,0l12.16-12.16
			c3.16-3.16,7.43-4.86,12-4.81c4.67,0.06,9.09,1.95,12.46,5.32c6.88,6.88,7.11,17.86,0.51,24.46l-25.57,25.57
			c-6.6,6.6-17.58,6.37-24.46-0.51c-3.56-3.56-9.34-3.56-12.91,0c-3.56,3.56-3.56,9.34,0,12.91c7.09,7.09,16.38,10.65,25.61,10.65
			c8.98,0,17.9-3.37,24.67-10.14l25.57-25.57c4.85-4.85,7.94-10.8,9.32-17.08h24.9V97.01z"/>
		<path class="st0" d="M131.38,175.84L119.22,188c-6.6,6.6-17.57,6.37-24.46-0.51c-6.88-6.88-7.11-17.86-0.51-24.46l25.57-25.57
			c6.6-6.6,17.58-6.37,24.46,0.51c3.56,3.56,9.34,3.56,12.91,0c3.56-3.56,3.56-9.34,0-12.91c-14-14-36.55-14.23-50.27-0.51
			l-25.57,25.57c-4.85,4.85-7.94,10.8-9.32,17.08h-24.9v18.25h25.69c1.69,5.45,4.7,10.6,9.03,14.94c4.33,4.33,9.48,7.34,14.94,9.03
			v25.7h18.25v-24.9c6.29-1.37,12.24-4.47,17.08-9.32l12.16-12.16c3.56-3.56,3.56-9.34,0-12.91
			C140.72,172.27,134.94,172.27,131.38,175.84z"/>
	</g>
</g>
</svg>
