<svg width="590" height="590" viewBox="0 0 590 590" fill="none" xmlns="http://www.w3.org/2000/svg">
<mask id="mask0_44_42" style="mask-type:alpha" maskUnits="userSpaceOnUse" x="114" y="0" width="363" height="591">
<path d="M295.09 0L291.132 13.4454V403.566L295.09 407.515L476.176 300.473L295.09 0Z" fill="#343434"/>
<path d="M295.09 0L114 300.473L295.09 407.515V218.161V0Z" fill="#8C8C8C"/>
<path d="M295.09 441.8L292.859 444.521V583.488L295.09 590L476.287 334.814L295.09 441.8Z" fill="#3C3C3B"/>
<path d="M295.09 590V441.8L114 334.814L295.09 590Z" fill="#8C8C8C"/>
<path d="M295.09 407.515L476.176 300.473L295.09 218.161V407.515Z" fill="#141414"/>
<path d="M114 300.473L295.09 407.515V218.161L114 300.473Z" fill="#393939"/>
</mask>
<g mask="url(#mask0_44_42)">
<path d="M295 585.462C455.417 585.462 585.462 455.417 585.462 295C585.462 134.583 455.417 4.53857 295 4.53857C134.583 4.53857 4.53857 134.583 4.53857 295C4.53857 455.417 134.583 585.462 295 585.462Z" fill="#1B1B1B" stroke="#828282"/>
<path d="M380.733 139.758L285.129 226.602C275.231 235.609 262.351 240.588 248.979 240.65L220.481 240.711L220.389 139.758H168.867V428.262H196.964C212.673 428.262 227.336 419.931 235.022 406.251C235.083 406.159 235.114 406.067 235.176 406.006C240.278 396.844 242.83 378.738 242.338 366.381C241.232 338.129 236.682 330.783 236.682 330.783C235.728 350.15 215.501 351.194 215.501 351.194C229.888 337.453 222.049 327.063 222.049 327.063C196.565 345.2 190.202 325.833 189.71 324.081C190.509 324.756 197.764 330.814 211.536 311.938C226.107 291.987 245.535 258.726 257.894 250.18C270.281 241.603 282.025 242.31 282.025 242.31C282.025 242.31 288.787 233.149 306.678 225.526C324.57 217.963 336.037 229.061 336.037 229.061C317.746 243.816 292.906 268.041 291.524 302.747C290.417 330.843 350.977 379.045 340.34 450.242C346.703 434.073 349.255 417.872 347.072 397.828C345.32 381.659 334.899 347.874 334.899 347.874L393.061 428.231H457.373L331.671 255.559L457.373 139.758H380.733Z" fill="url(#paint0_linear_44_42)"/>
<path d="M258.73 263.983C254.672 270.715 254.672 272.774 254.672 272.774C254.672 272.774 268.875 270.377 272.716 253.5C272.747 253.5 263.649 255.836 258.73 263.983Z" fill="url(#paint1_linear_44_42)"/>
</g>
<defs>
<linearGradient id="paint0_linear_44_42" x1="471.151" y1="1086.73" x2="787.155" y2="930.421" gradientUnits="userSpaceOnUse">
<stop stop-color="#FF4C3B"/>
<stop offset="1" stop-color="#E40C5B"/>
</linearGradient>
<linearGradient id="paint1_linear_44_42" x1="273.579" y1="312.287" x2="293.286" y2="302.466" gradientUnits="userSpaceOnUse">
<stop stop-color="#FF4C3B"/>
<stop offset="1" stop-color="#E40C5B"/>
</linearGradient>
</defs>
</svg>
