<svg width="80" height="80" viewBox="0 0 80 80" fill="none" xmlns="http://www.w3.org/2000/svg">
<path d="M0 40C0 62.0914 17.9086 80 40 80C62.0914 80 80 62.0914 80 40C80 17.9086 62.0914 0 40 0C17.9086 0 0 17.9086 0 40Z" fill="#7B3FE4"/>
<path d="M53.2399 31.3079C52.2804 30.7417 51.0332 30.7417 49.9779 31.3079L42.4945 35.6484L37.4096 38.4791L29.9262 42.8195C28.9668 43.3857 27.7195 43.3857 26.6642 42.8195L20.7158 39.4227C19.7565 38.8565 19.0849 37.8185 19.0849 36.6863V29.9869C19.0849 28.8545 19.6606 27.8166 20.7158 27.2505L26.5682 23.9479C27.5277 23.3818 28.7749 23.3818 29.8303 23.9479L35.6827 27.2505C36.642 27.8166 37.3137 28.8545 37.3137 29.9869V34.3273L42.3985 31.4022V27.0617C42.3985 25.9295 41.8228 24.8914 40.7676 24.3254L29.9262 18.0977C28.9668 17.5316 27.7195 17.5316 26.6642 18.0977L15.631 24.3254C14.5756 24.8914 14 25.9295 14 27.0617V39.6113C14 40.7437 14.5756 41.7816 15.631 42.3478L26.6642 48.5754C27.6236 49.1415 28.8708 49.1415 29.9262 48.5754L37.4096 44.3292L42.4945 41.4042L49.9779 37.158C50.9373 36.592 52.1845 36.592 53.2399 37.158L59.0922 40.4606C60.0516 41.0268 60.7233 42.0647 60.7233 43.197V49.8964C60.7233 51.0286 60.1476 52.0667 59.0922 52.6328L53.2399 56.0296C52.2804 56.5958 51.0332 56.5958 49.9779 56.0296L44.1254 52.7272C43.1661 52.161 42.4945 51.1231 42.4945 49.9907V45.6502L37.4096 48.5754V52.9158C37.4096 54.0482 37.9852 55.0861 39.0406 55.6522L50.0738 61.8799C51.0332 62.4461 52.2804 62.4461 53.3358 61.8799L64.369 55.6522C65.3285 55.0861 66 54.0482 66 52.9158V40.3663C66 39.2339 65.4244 38.196 64.369 37.6299L53.2399 31.3079Z" fill="white"/>
</svg>
