<svg width="24" height="24" viewBox="0 0 24 24" fill="none" xmlns="http://www.w3.org/2000/svg">
<path d="M0 12C0 5.37258 5.37258 0 12 0C18.6274 0 24 5.37258 24 12C24 18.6274 18.6274 24 12 24C5.37258 24 0 18.6274 0 12Z" fill="#0D1126"/>
<path d="M13.6872 4.44852C10.6308 4.44852 8.15305 6.92629 8.15305 9.98271H8.15315C8.1532 9.98658 8.15294 9.99034 8.15315 9.99426L8.15361 10.0029C8.16129 10.1472 8.28152 10.2598 8.42603 10.2598H18.9484C19.093 10.2598 19.2132 10.1472 19.2209 10.0029L19.2213 9.99426C19.2215 9.99034 19.2213 9.98658 19.2213 9.98271H19.2214C19.2214 6.92629 16.7437 4.44852 13.6872 4.44852Z" fill="#53CBC8"/>
<path d="M4.48959 16.1618C4.48959 16.3477 4.33882 16.4985 4.15277 16.4985C3.96678 16.4985 3.81601 16.3477 3.81601 16.1618C3.81601 15.9758 3.96678 15.825 4.15277 15.825C4.33882 15.825 4.48959 15.9758 4.48959 16.1618Z" fill="#E1147B"/>
<path d="M18.5826 14.2983H7.29184C7.04064 14.2983 6.88122 14.5665 7.00002 14.7878C7.00185 14.7913 7.00374 14.7948 7.00567 14.7983C7.06339 14.9055 7.17578 14.9719 7.29749 14.9719H18.5769C18.6986 14.9719 18.811 14.9055 18.8688 14.7983C18.8707 14.7948 18.8725 14.7913 18.8744 14.7878C18.9932 14.5665 18.8338 14.2983 18.5826 14.2983Z" fill="#E1147B"/>
<path d="M20.083 11.2451H7.29144C7.10076 11.2451 6.9505 11.4055 6.96033 11.5959C6.96053 11.5994 6.96073 11.603 6.96094 11.6065C6.97025 11.7818 7.11639 11.9187 7.29205 11.9187H20.0824C20.258 11.9187 20.4042 11.7818 20.4135 11.6065C20.4137 11.603 20.4139 11.5994 20.4141 11.5959C20.4239 11.4055 20.2737 11.2451 20.083 11.2451Z" fill="#E1147B"/>
<path d="M15.2663 18.8782H9.50178C9.15157 18.8782 9.04127 19.349 9.35391 19.5068C9.36093 19.5103 9.36796 19.5138 9.37498 19.5173C9.42084 19.5403 9.47159 19.5518 9.5229 19.5518H15.2452C15.2965 19.5518 15.3473 19.5403 15.3931 19.5173C15.4002 19.5138 15.4072 19.5103 15.4142 19.5068C15.7269 19.349 15.6166 18.8782 15.2663 18.8782Z" fill="#E1147B"/>
<path d="M18.7886 17.3516H13.024C12.6738 17.3516 12.5635 17.8224 12.8762 17.9801C12.8832 17.9837 12.8902 17.9872 12.8972 17.9907C12.9431 18.0136 12.9938 18.0251 13.0451 18.0251H18.7675C18.8187 18.0251 18.8695 18.0136 18.9154 17.9907C18.9224 17.9872 18.9294 17.9837 18.9364 17.9801C19.2491 17.8224 19.1387 17.3516 18.7886 17.3516Z" fill="#E1147B"/>
<path d="M10.9282 16.3926C10.9249 16.3891 10.9216 16.3856 10.9183 16.3821C10.7206 16.1708 10.8722 15.825 11.1616 15.825H20.5177C20.8071 15.825 20.9586 16.1708 20.7609 16.3821C20.7577 16.3856 20.7544 16.3891 20.7511 16.3926C20.688 16.4598 20.6002 16.4985 20.5079 16.4985H11.1714C11.0791 16.4985 10.9913 16.4598 10.9282 16.3926Z" fill="#E1147B"/>
<path d="M5.35573 15.825H9.82349C10.1737 15.825 10.284 16.2957 9.97136 16.4535C9.96434 16.4571 9.95731 16.4606 9.95029 16.4641C9.90443 16.487 9.85368 16.4985 9.80242 16.4985H5.37686C5.3256 16.4985 5.2748 16.487 5.22894 16.4641C5.22191 16.4606 5.21489 16.4571 5.20792 16.4535C4.89528 16.2957 5.00558 15.825 5.35573 15.825Z" fill="#E1147B"/>
<path d="M6.4255 11.5819C6.4255 11.7679 6.27473 11.9187 6.08869 11.9187C5.90269 11.9187 5.75192 11.7679 5.75192 11.5819C5.75192 11.3959 5.90269 11.2452 6.08869 11.2452C6.27473 11.2452 6.4255 11.3959 6.4255 11.5819Z" fill="#E1147B"/>
<path d="M14.3646 13.1995C14.3656 13.196 14.3665 13.1924 14.3675 13.189C14.4244 12.9786 14.2649 12.7717 14.047 12.7717H4.68973C4.47177 12.7717 4.31224 12.9786 4.36925 13.189C4.37017 13.1924 4.37113 13.196 4.3721 13.1995C4.41155 13.3443 4.54242 13.4453 4.69253 13.4453H14.0442C14.1943 13.4453 14.3251 13.3443 14.3646 13.1995Z" fill="#E1147B"/>
<path d="M3.8232 13.1085C3.8232 13.2945 3.67243 13.4453 3.48639 13.4453C3.3004 13.4453 3.14963 13.2945 3.14963 13.1085C3.14963 12.9225 3.3004 12.7717 3.48639 12.7717C3.67243 12.7717 3.8232 12.9225 3.8232 13.1085Z" fill="#E1147B"/>
<path d="M6.4255 14.6351C6.4255 14.8211 6.27473 14.9719 6.08869 14.9719C5.90269 14.9719 5.75192 14.8211 5.75192 14.6351C5.75192 14.4491 5.90269 14.2983 6.08869 14.2983C6.27473 14.2983 6.4255 14.4491 6.4255 14.6351Z" fill="#E1147B"/>
<path d="M12.1579 17.6884C12.1579 17.8744 12.0071 18.0251 11.821 18.0251C11.6351 18.0251 11.4843 17.8744 11.4843 17.6884C11.4843 17.5024 11.6351 17.3516 11.821 17.3516C12.0071 17.3516 12.1579 17.5024 12.1579 17.6884Z" fill="#E1147B"/>
<path d="M8.63564 19.215C8.63564 19.401 8.48487 19.5518 8.29883 19.5518C8.11284 19.5518 7.96207 19.401 7.96207 19.215C7.96207 19.029 8.11284 18.8782 8.29883 18.8782C8.48487 18.8782 8.63564 19.029 8.63564 19.215Z" fill="#E1147B"/>
</svg>
