
<svg width="24" height="24" viewBox="0 0 24 24" fill="none" xmlns="http://www.w3.org/2000/svg">
<path d="M0 12C0 5.37258 5.37258 0 12 0C18.6274 0 24 5.37258 24 12C24 18.6274 18.6274 24 12 24C5.37258 24 0 18.6274 0 12Z" fill="#0D1126"/>
<g clip-path="url(#clip0_5061_3666)">
<path fill-rule="evenodd" clip-rule="evenodd" d="M11.8864 3.8927C8.53833 3.89357 5.82441 6.60749 5.82352 9.95555C5.82392 10.3385 5.85983 10.7207 5.93079 11.097L6.71526 10.5607C8.0921 9.61615 10.3254 9.61615 11.7023 10.5607L12.5236 11.1242L12.9702 11.43C14.211 12.2801 16.2218 12.2801 17.4609 11.43L17.826 11.1803C18.4988 7.89836 16.3837 4.69238 13.1018 4.01951C12.7029 3.93772 12.2968 3.89631 11.8896 3.8959L11.8864 3.8927Z" fill="#F2B705"/>
<path fill-rule="evenodd" clip-rule="evenodd" d="M15.2948 13.5978C14.429 13.6143 13.5779 13.3724 12.8501 12.9029L11.5838 12.0352C10.1782 11.1727 8.40736 11.1727 7.00183 12.0352L6.18374 12.5956C6.0215 12.7065 5.8 12.6649 5.68903 12.5027C5.57807 12.3405 5.61964 12.119 5.78188 12.008L6.59998 11.4477C8.249 10.423 10.3366 10.423 11.9856 11.4477L13.252 12.3154C14.5049 13.0837 16.0831 13.0837 17.336 12.3154L17.8163 11.9872C17.9786 11.8762 18.2001 11.9178 18.311 12.0801C18.422 12.2423 18.3804 12.4638 18.2182 12.5747L17.7379 12.9029C17.0102 13.3712 16.16 13.613 15.2948 13.5978Z" fill="#53CBC8"/>
<path fill-rule="evenodd" clip-rule="evenodd" d="M9.26717 16.1448V12.7188C9.26424 12.6466 9.26693 12.5744 9.27517 12.5026C9.2979 12.3076 9.46301 12.1603 9.6594 12.16C9.8495 12.1658 10.005 12.3132 10.0212 12.5026C10.0358 12.6216 10.0401 12.7416 10.034 12.8613V19.6926C10.042 19.9135 9.86944 20.099 9.64853 20.107C9.64629 20.1071 9.64405 20.1072 9.64179 20.1072C9.42462 20.0951 9.25837 19.9092 9.27049 19.6921C9.27082 19.6858 9.27134 19.6796 9.27197 19.6734V17.3952L9.26717 16.1448Z" fill="#53CBC8"/>
<path fill-rule="evenodd" clip-rule="evenodd" d="M8.54677 14.4206V16.1224C8.54677 16.4138 8.38667 16.6027 8.17054 16.6027C7.9544 16.6027 7.78311 16.3994 7.78149 16.1224V12.7156C7.78149 12.4178 7.95601 12.2161 8.18176 12.2353C8.40748 12.2545 8.54197 12.4258 8.54356 12.7252C8.54677 13.2855 8.54677 13.8523 8.54677 14.4206Z" fill="#53CBC8"/>
<path fill-rule="evenodd" clip-rule="evenodd" d="M10.7577 14.4174V13.2231C10.7577 12.9461 10.905 12.7668 11.1243 12.7668C11.3513 12.7775 11.5267 12.9701 11.516 13.1971C11.5158 13.2026 11.5154 13.2081 11.5149 13.2135C11.5224 14.0268 11.5224 14.8406 11.5149 15.655C11.5149 15.9319 11.3549 16.1001 11.1259 16.0969C10.897 16.0936 10.7577 15.9239 10.7561 15.6406V14.419L10.7577 14.4174Z" fill="#53CBC8"/>
<path fill-rule="evenodd" clip-rule="evenodd" d="M6.29742 14.6639V13.468C6.29742 13.1894 6.4447 13.0101 6.66404 13.0101C6.89102 13.0208 7.06641 13.2134 7.05577 13.4404C7.0555 13.4459 7.05514 13.4513 7.05467 13.4568C7.06213 14.2712 7.06213 15.0855 7.05467 15.8999C7.05467 16.1768 6.89458 16.3433 6.66724 16.3417C6.43991 16.3401 6.29742 16.1688 6.29581 15.8839V14.6639H6.29742Z" fill="#53CBC8"/>
<path fill-rule="evenodd" clip-rule="evenodd" d="M12.6164 13.6489C12.8242 13.6489 12.9926 13.8174 12.9926 14.0252V14.6751C12.9926 14.8829 12.8242 15.0513 12.6164 15.0513C12.4086 15.0513 12.2402 14.8829 12.2402 14.6751V14.0252C12.2402 13.8174 12.4086 13.6489 12.6164 13.6489Z" fill="#53CBC8"/>
<path fill-rule="evenodd" clip-rule="evenodd" d="M14.1053 14.2189C14.3131 14.2189 14.4815 14.3873 14.4815 14.5951V18.2437C14.4815 18.4515 14.3131 18.6199 14.1053 18.6199C13.8975 18.6199 13.7291 18.4515 13.7291 18.2437V14.5951C13.7291 14.3873 13.8975 14.2189 14.1053 14.2189Z" fill="#53CBC8"/>
<path fill-rule="evenodd" clip-rule="evenodd" d="M15.5846 14.3597C15.7924 14.3597 15.9608 14.5282 15.9608 14.736V17.837C15.9608 18.0448 15.7924 18.2132 15.5846 18.2132C15.3768 18.2132 15.2083 18.0448 15.2083 17.837V14.736C15.2083 14.5282 15.3768 14.3597 15.5846 14.3597Z" fill="#53CBC8"/>
<path fill-rule="evenodd" clip-rule="evenodd" d="M17.0847 14.006C17.2924 14.006 17.4609 14.1745 17.4609 14.3822V15.719C17.4609 15.9268 17.2924 16.0953 17.0847 16.0953C16.8769 16.0953 16.7084 15.9268 16.7084 15.719V14.3822C16.7084 14.1745 16.8769 14.006 17.0847 14.006Z" fill="#53CBC8"/>
</g>
<defs>
<clipPath id="clip0_5061_3666">
<rect width="16.8" height="16.8" fill="white" transform="translate(3.60001 3.59998)"/>
</clipPath>
</defs>
</svg>
