<svg width="80" height="80" viewBox="0 0 80 80" fill="none" xmlns="http://www.w3.org/2000/svg">
<rect width="80" height="80" rx="40" fill="#0D1126"/>
<path d="M45.6241 14.8281C35.436 14.8281 27.1768 23.0873 27.1768 33.2754H27.1771C27.1773 33.2883 27.1764 33.3008 27.1771 33.3139L27.1787 33.3427C27.2043 33.8236 27.605 34.1989 28.0867 34.1989H63.1615C63.6432 34.1989 64.0441 33.8236 64.0695 33.3427L64.0711 33.3139C64.0718 33.3008 64.0709 33.2883 64.0711 33.2754H64.0714C64.0714 23.0873 55.8122 14.8281 45.6241 14.8281Z" fill="#53CBC8"/>
<path d="M14.9653 53.8721C14.9653 54.4919 14.4628 54.9947 13.8426 54.9947C13.2226 54.9947 12.7201 54.4919 12.7201 53.8721C12.7201 53.2522 13.2226 52.7494 13.8426 52.7494C14.4628 52.7494 14.9653 53.2522 14.9653 53.8721Z" fill="#E1147B"/>
<path d="M61.942 47.6607H24.3061C23.4688 47.6607 22.9374 48.5546 23.3334 49.2923C23.3395 49.304 23.3458 49.3157 23.3522 49.3273C23.5446 49.6846 23.9192 49.906 24.3249 49.906H61.923C62.3287 49.906 62.7033 49.6846 62.8959 49.3273C62.9022 49.3157 62.9085 49.304 62.9147 49.2923C63.3106 48.5546 62.7792 47.6607 61.942 47.6607Z" fill="#E1147B"/>
<path d="M66.9435 37.4835H24.3048C23.6692 37.4835 23.1684 38.0181 23.2011 38.6528C23.2018 38.6646 23.2025 38.6763 23.2031 38.688C23.2342 39.2725 23.7213 39.7287 24.3069 39.7287H66.9414C67.5268 39.7287 68.0141 39.2725 68.0452 38.688C68.0458 38.6763 68.0463 38.6646 68.047 38.6528C68.0798 38.0181 67.5791 37.4835 66.9435 37.4835Z" fill="#E1147B"/>
<path d="M50.8879 62.9266H31.6726C30.5053 62.9266 30.1376 64.4961 31.1797 65.0219C31.2031 65.0336 31.2266 65.0453 31.25 65.0572C31.4028 65.1336 31.572 65.1719 31.743 65.1719H50.8174C50.9885 65.1719 51.1576 65.1336 51.3105 65.0572C51.3339 65.0453 51.3573 65.0336 51.3808 65.0219C52.4229 64.4961 52.0552 62.9266 50.8879 62.9266Z" fill="#E1147B"/>
<path d="M62.6286 57.838H43.4134C42.246 57.838 41.8784 59.4073 42.9205 59.9333C42.9439 59.945 42.9673 59.9567 42.9907 59.9686C43.1436 60.0449 43.3128 60.0833 43.4838 60.0833H62.5582C62.7291 60.0833 62.8984 60.0449 63.0513 59.9686C63.0747 59.9567 63.0981 59.945 63.1214 59.9333C64.1635 59.4073 63.7958 57.838 62.6286 57.838Z" fill="#E1147B"/>
<path d="M36.4271 54.6414C36.4163 54.6299 36.4054 54.6182 36.3944 54.6066C35.7354 53.9022 36.2407 52.7494 37.2052 52.7494H68.3921C69.3569 52.7494 69.862 53.9022 69.203 54.6066C69.1921 54.6182 69.1813 54.6299 69.1704 54.6414C68.9599 54.8656 68.6672 54.9947 68.3597 54.9947H37.2378C36.9302 54.9947 36.6377 54.8656 36.4271 54.6414Z" fill="#E1147B"/>
<path d="M17.8525 52.7494H32.745C33.9123 52.7494 34.28 54.3187 33.2379 54.8446C33.2145 54.8563 33.1911 54.868 33.1676 54.8798C33.0148 54.9563 32.8456 54.9946 32.6747 54.9946H17.9229C17.752 54.9946 17.5827 54.9563 17.4298 54.8798C17.4064 54.868 17.383 54.8563 17.3597 54.8446C16.3176 54.3187 16.6853 52.7494 17.8525 52.7494Z" fill="#E1147B"/>
<path d="M21.4184 38.606C21.4184 39.226 20.9158 39.7286 20.2957 39.7286C19.6757 39.7286 19.1731 39.226 19.1731 38.606C19.1731 37.986 19.6757 37.4835 20.2957 37.4835C20.9158 37.4835 21.4184 37.986 21.4184 38.606Z" fill="#E1147B"/>
<path d="M47.8822 43.9979C47.8854 43.9863 47.8885 43.9745 47.8917 43.9629C48.0815 43.2617 47.5498 42.5721 46.8234 42.5721H15.6325C14.9059 42.5721 14.3742 43.2617 14.5642 43.9629C14.5673 43.9745 14.5705 43.9863 14.5737 43.9979C14.7052 44.4808 15.1414 44.8174 15.6418 44.8174H46.8141C47.3145 44.8174 47.7505 44.4808 47.8822 43.9979Z" fill="#E1147B"/>
<path d="M12.744 43.6947C12.744 44.3146 12.2414 44.8174 11.6213 44.8174C11.0013 44.8174 10.4987 44.3146 10.4987 43.6947C10.4987 43.0747 11.0013 42.5721 11.6213 42.5721C12.2414 42.5721 12.744 43.0747 12.744 43.6947Z" fill="#E1147B"/>
<path d="M21.4184 48.7833C21.4184 49.4033 20.9158 49.906 20.2957 49.906C19.6757 49.906 19.1731 49.4033 19.1731 48.7833C19.1731 48.1633 19.6757 47.6607 20.2957 47.6607C20.9158 47.6607 21.4184 48.1633 21.4184 48.7833Z" fill="#E1147B"/>
<path d="M40.5262 58.9608C40.5262 59.5807 40.0236 60.0833 39.4035 60.0833C38.7835 60.0833 38.2809 59.5807 38.2809 58.9608C38.2809 58.3408 38.7835 57.838 39.4035 57.838C40.0236 57.838 40.5262 58.3408 40.5262 58.9608Z" fill="#E1147B"/>
<path d="M28.7855 64.0494C28.7855 64.6694 28.2829 65.1719 27.6628 65.1719C27.0428 65.1719 26.5402 64.6694 26.5402 64.0494C26.5402 63.4294 27.0428 62.9267 27.6628 62.9267C28.2829 62.9267 28.7855 63.4294 28.7855 64.0494Z" fill="#E1147B"/>
</svg>
