<svg width="80" height="80" viewBox="0 0 80 80" fill="none" xmlns="http://www.w3.org/2000/svg">
<rect width="80" height="80" rx="40" fill="#0D1126"/>
<path fill-rule="evenodd" clip-rule="evenodd" d="M39.6212 12.9758C28.461 12.9787 19.4147 22.0251 19.4117 33.1853C19.413 34.4619 19.5327 35.7357 19.7692 36.9902L22.3841 35.2025C26.9736 32.0539 34.418 32.0539 39.0075 35.2025L41.7451 37.0809L43.234 38.1002C47.3699 40.9339 54.0725 40.9339 58.203 38.1002L59.4198 37.2677C61.6627 26.328 54.6124 15.6414 43.6727 13.3985C42.3431 13.1258 40.9893 12.9878 39.6318 12.9864L39.6212 12.9758Z" fill="#F2B705"/>
<path fill-rule="evenodd" clip-rule="evenodd" d="M50.9827 45.3259C48.0966 45.381 45.2595 44.5746 42.8337 43.0098L38.6125 40.1174C33.9274 37.2423 28.0245 37.2423 23.3394 40.1174L20.6124 41.9852C20.0716 42.3551 19.3333 42.2165 18.9634 41.6757C18.5935 41.1349 18.7321 40.3966 19.2729 40.0267L21.9999 38.1589C27.4966 34.7435 34.4553 34.7435 39.9521 38.1589L44.1733 41.0513C48.3497 43.6124 53.6102 43.6124 57.7868 41.0513L59.3877 39.9573C59.9286 39.5875 60.6668 39.726 61.0367 40.2669C61.4066 40.8077 61.268 41.546 60.7272 41.9158L59.1262 43.0098C56.7007 44.5707 53.8666 45.3768 50.9827 45.3259Z" fill="#53CBC8"/>
<path fill-rule="evenodd" clip-rule="evenodd" d="M30.8905 53.8163V42.3961C30.8808 42.1556 30.8897 41.9148 30.9172 41.6757C30.993 41.0254 31.5433 40.5347 32.1979 40.5336C32.8316 40.553 33.3501 41.0441 33.404 41.6757C33.4526 42.0722 33.4669 42.4721 33.4467 42.8711V65.6421C33.4734 66.3784 32.8981 66.9969 32.1617 67.0237C32.1543 67.0239 32.1468 67.0243 32.1393 67.0243C31.4154 66.9839 30.8612 66.3644 30.9016 65.6404C30.9027 65.6196 30.9044 65.5988 30.9065 65.578V57.9841L30.8905 53.8163Z" fill="#53CBC8"/>
<path fill-rule="evenodd" clip-rule="evenodd" d="M28.4892 48.0689V53.7416C28.4892 54.7128 27.9555 55.3426 27.2351 55.3426C26.5146 55.3426 25.9437 54.6649 25.9383 53.7416V42.3855C25.9383 41.3929 26.52 40.7204 27.2725 40.7844C28.0249 40.8486 28.4732 41.4195 28.4785 42.4175C28.4892 44.2852 28.4892 46.1744 28.4892 48.0689Z" fill="#53CBC8"/>
<path fill-rule="evenodd" clip-rule="evenodd" d="M35.8589 48.0582V44.0772C35.8589 43.1538 36.3499 42.5562 37.081 42.5562C37.8376 42.5917 38.4222 43.2338 38.3868 43.9904C38.386 44.0087 38.3847 44.0269 38.3831 44.0451C38.4081 46.7561 38.4081 49.4688 38.3831 52.1833C38.3831 53.1065 37.8495 53.6669 37.0863 53.6562C36.3232 53.6455 35.8589 53.0799 35.8536 52.1353V48.0635L35.8589 48.0582Z" fill="#53CBC8"/>
<path fill-rule="evenodd" clip-rule="evenodd" d="M20.9914 48.88V44.8936C20.9914 43.9651 21.4823 43.3674 22.2134 43.3674C22.97 43.4029 23.5547 44.045 23.5192 44.8016C23.5183 44.8198 23.5171 44.8381 23.5155 44.8562C23.5404 47.5708 23.5404 50.2853 23.5155 52.9999C23.5155 53.9231 22.9819 54.4781 22.2241 54.4727C21.4663 54.4674 20.9914 53.8964 20.986 52.9465V48.88H20.9914Z" fill="#53CBC8"/>
<path fill-rule="evenodd" clip-rule="evenodd" d="M42.0546 45.4967C42.7472 45.4967 43.3087 46.0582 43.3087 46.7508V48.9174C43.3087 49.61 42.7472 50.1714 42.0546 50.1714C41.362 50.1714 40.8005 49.61 40.8005 48.9174V46.7508C40.8005 46.0582 41.362 45.4967 42.0546 45.4967Z" fill="#53CBC8"/>
<path fill-rule="evenodd" clip-rule="evenodd" d="M47.0176 47.3965C47.7102 47.3965 48.2717 47.9579 48.2717 48.6506V60.8126C48.2717 61.5052 47.7102 62.0667 47.0176 62.0667C46.325 62.0667 45.7635 61.5052 45.7635 60.8126V48.6506C45.7635 47.9579 46.325 47.3965 47.0176 47.3965Z" fill="#53CBC8"/>
<path fill-rule="evenodd" clip-rule="evenodd" d="M51.9486 47.8661C52.6412 47.8661 53.2027 48.4276 53.2027 49.1202V59.457C53.2027 60.1497 52.6412 60.7111 51.9486 60.7111C51.256 60.7111 50.6945 60.1497 50.6945 59.457V49.1202C50.6945 48.4276 51.256 47.8661 51.9486 47.8661Z" fill="#53CBC8"/>
<path fill-rule="evenodd" clip-rule="evenodd" d="M56.9489 46.6867C57.6415 46.6867 58.203 47.2483 58.203 47.9408V52.3968C58.203 53.0894 57.6415 53.6509 56.9489 53.6509C56.2563 53.6509 55.6948 53.0894 55.6948 52.3968V47.9408C55.6948 47.2483 56.2563 46.6867 56.9489 46.6867Z" fill="#53CBC8"/>
</svg>
