<svg width="22" height="22" viewBox="0 0 22 22" fill="none" xmlns="http://www.w3.org/2000/svg">
<path d="M22 11C22 17.0751 17.0751 22 11 22C4.92487 22 0 17.0751 0 11C0 4.92487 4.92487 0 11 0C17.0751 0 22 4.92487 22 11Z" fill="white"/>
<path fill-rule="evenodd" clip-rule="evenodd" d="M11 21.5417C16.822 21.5417 21.5417 16.822 21.5417 11C21.5417 5.178 16.822 0.458333 11 0.458333C5.178 0.458333 0.458333 5.178 0.458333 11C0.458333 16.822 5.178 21.5417 11 21.5417ZM11 22C17.0751 22 22 17.0751 22 11C22 4.92487 17.0751 0 11 0C4.92487 0 0 4.92487 0 11C0 17.0751 4.92487 22 11 22Z" fill="black" fill-opacity="0.06"/>
<path fill-rule="evenodd" clip-rule="evenodd" d="M11 21.5417C16.822 21.5417 21.5417 16.822 21.5417 11C21.5417 5.178 16.822 0.458333 11 0.458333C5.178 0.458333 0.458333 5.178 0.458333 11C0.458333 16.822 5.178 21.5417 11 21.5417ZM11 22C17.0751 22 22 17.0751 22 11C22 4.92487 17.0751 0 11 0C4.92487 0 0 4.92487 0 11C0 17.0751 4.92487 22 11 22Z" fill="white" fill-opacity="0.1"/>
<path fill-rule="evenodd" clip-rule="evenodd" d="M8.66249 4.8125H5.0875C4.93562 4.8125 4.8125 4.93562 4.8125 5.0875V8.66249C4.8125 8.81437 4.93562 8.93749 5.0875 8.93749H8.66249C8.81437 8.93749 8.93749 8.81437 8.93749 8.66249V5.0875C8.93749 4.93562 8.81437 4.8125 8.66249 4.8125ZM12.7893 8.93749H9.21427C9.06239 8.93749 8.93927 9.06061 8.93927 9.21249V12.7875C8.93927 12.9394 9.06239 13.0625 9.21427 13.0625H12.7893C12.9411 13.0625 13.0643 12.9394 13.0643 12.7875V9.21249C13.0643 9.06061 12.9411 8.93749 12.7893 8.93749ZM13.3375 4.8125H16.9125C17.0644 4.8125 17.1875 4.93562 17.1875 5.0875V8.66249C17.1875 8.81437 17.0644 8.93749 16.9125 8.93749H13.3375C13.1856 8.93749 13.0625 8.81437 13.0625 8.66249V5.0875C13.0625 4.93562 13.1856 4.8125 13.3375 4.8125ZM8.66249 13.0625H5.0875C4.93562 13.0625 4.8125 13.1856 4.8125 13.3375V16.9125C4.8125 17.0644 4.93562 17.1875 5.0875 17.1875H8.66249C8.81437 17.1875 8.93749 17.0644 8.93749 16.9125V13.3375C8.93749 13.1856 8.81437 13.0625 8.66249 13.0625ZM13.3375 13.0625H16.9125C17.0644 13.0625 17.1875 13.1856 17.1875 13.3375V16.9125C17.1875 17.0644 17.0644 17.1875 16.9125 17.1875H13.3375C13.1856 17.1875 13.0625 17.0644 13.0625 16.9125V13.3375C13.0625 13.1856 13.1856 13.0625 13.3375 13.0625Z" fill="black"/>
</svg>
