<?xml version="1.0" encoding="UTF-8" standalone="no"?>
<svg
   viewBox="0 0 288 288"
   version="1.1"
   id="svg19"
   width="288"
   height="288"
   xmlns="http://www.w3.org/2000/svg"
   xmlns:svg="http://www.w3.org/2000/svg">
  <defs
     id="defs4">
    <style
       id="style2">.cls-1{fill:#fff;}</style>
  </defs>
  <ellipse
     class="cls-1"
     cx="144"
     cy="144"
     id="circle6"
     style="fill:#1e56f2;fill-opacity:1;stroke:#ff0000;stroke-width:19.5728;stroke-miterlimit:4;stroke-dasharray:none;stroke-opacity:1"
     rx="134.21359"
     ry="134.21361" />
  <g
     id="Layer_11"
     data-name="Layer 11"
     transform="matrix(3.2114293,0,0,3.2114293,7.4742857,7.5513142)">
    <path
       class="cls-1"
       d="m 63,60.93 a 28.68,28.68 0 0 1 -5,3.44 c 0.34,-0.27 -0.73,-1.39 -0.4,-1.68 8.08,-7 9.92,-16.07 6.66,-24 -0.44,-1.08 0.49,-1.51 0.49,-2.49 7.53,7.01 6.72,17.4 -1.75,24.73 z"
       id="path6" />
    <path
       class="cls-1"
       d="M 64.83,36.18 A 26.88,26.88 0 0 0 53.3,30.11 h -0.06 0.06 c 1.64,0.43 1.76,2.32 2.89,3.27 2.41,2 3.06,4.66 3.31,8.11 0.37,5.14 0.34,10.22 -3.41,14.75 a 20.32,20.32 0 0 1 -7.4,5.81 l -0.66,0.28 h -0.1 a 25.12,25.12 0 0 1 -4.71,1.35 c -6.09,1.15 -14.15,0.67 -23.89,-2.43 a 35.32,35.32 0 0 0 12.26,6.16 35.85,35.85 0 0 0 13.66,1 v 0 c 0.66,-0.07 1.3,-0.17 1.94,-0.28 a 35.4,35.4 0 0 0 7.28,-2.08 v 0 a 33.56,33.56 0 0 0 3.57,-1.71 c 0.34,-0.27 0.68,-0.55 1,-0.83 9.21,-7.95 11.29,-18.76 5.79,-27.33 z"
       id="path8" />
    <path
       class="cls-1"
       d="m 48,62.33 c 11.39,-4.64 12,-16.4 -1.23,-23 -9.62,-4.81 -5.37,-12.45 6.5,-9.2 13.3,3.46 9.38,26.56 -5.27,32.2 z"
       id="path10" />
    <path
       class="cls-1"
       d="m 65.71,23.75 c -12.52,-4 -22.23,-3.64 -28.6,-1.07 h -0.1 c -9.47,3.9 -11.49,12.68 -4.29,19.32 -1.9,-1.57 -4.06,-3.24 -5,-5.37 a 16.29,16.29 0 0 1 -1.08,-8.91 13.11,13.11 0 0 1 7,-9.38 21.19,21.19 0 0 1 6.11,-1.76 35.18,35.18 0 0 1 25.96,7.17 z"
       id="path12" />
    <path
       class="cls-1"
       d="M 34.84,55.57 C 34.02,55.31 33.09,55.18 32.33,54.87 22.66,51 17.5,43.75 17.68,36.61 c 0.14,-5.07 3.11,-10.2 8,-14.44 A 33.32,33.32 0 0 1 30.53,19 v 0 a 35.41,35.41 0 0 1 7.28,-2.09 c 0.65,-0.11 1.31,-0.21 2,-0.29 A 18.43,18.43 0 0 0 37.57,17.1 C 25,20.47 24.3,35 32.72,42 v 0 a 23.65,23.65 0 0 0 5.51,3.72 c 8.77,4.38 6.05,11.07 -3.39,9.85 z"
       id="path14" />
    <path
       class="cls-1"
       d="m 34.84,55.57 a 22.45,22.45 0 0 1 -3.1,-0.63 C 13.2,49.87 10.48,34.13 22,24.11 a 30.62,30.62 0 0 1 8.53,-5.11 31.67,31.67 0 0 0 -4.6,3.29 c -12.26,10.64 -9.82,27.22 8.91,33.28 z"
       id="path16" />
  </g>
</svg>
