<?xml version="1.0" encoding="UTF-8"?>
<!DOCTYPE svg PUBLIC "-//W3C//DTD SVG 1.1//EN" "http://www.w3.org/Graphics/SVG/1.1/DTD/svg11.dtd">
<svg xmlns="http://www.w3.org/2000/svg" version="1.1" width="128px" height="128px" style="shape-rendering:geometricPrecision; text-rendering:geometricPrecision; image-rendering:optimizeQuality; fill-rule:evenodd; clip-rule:evenodd" xmlns:xlink="http://www.w3.org/1999/xlink">
<g><path style="opacity:1" fill="#e10902" d="M 53.5,-0.5 C 77.5,-0.5 101.5,-0.5 125.5,-0.5C 125.833,0.5 126.5,1.16667 127.5,1.5C 127.5,20.1667 127.5,38.8333 127.5,57.5C 121.521,52.1877 115.854,46.521 110.5,40.5C 109.005,39.2947 107.672,39.2947 106.5,40.5C 77.8333,69.5 49.1667,98.5 20.5,127.5C 14.1667,127.5 7.83333,127.5 1.5,127.5C 1.16667,126.5 0.5,125.833 -0.5,125.5C -0.5,119.167 -0.5,112.833 -0.5,106.5C 5.83333,100.833 11.8333,94.8333 17.5,88.5C 18.8333,87.8333 19.8333,86.8333 20.5,85.5C 42.632,63.8683 64.632,42.035 86.5,20C 81.5111,19.5007 76.5111,19.3341 71.5,19.5C 65.5,12.8333 59.5,6.16667 53.5,-0.5 Z"/></g>
<g><path style="opacity:1" fill="#fdfafb" d="M 125.5,-0.5 C 126.167,-0.5 126.833,-0.5 127.5,-0.5C 127.5,0.166667 127.5,0.833333 127.5,1.5C 126.5,1.16667 125.833,0.5 125.5,-0.5 Z"/></g>
<g><path style="opacity:1" fill="#e8443f" d="M 33.5,-0.5 C 40.1667,-0.5 46.8333,-0.5 53.5,-0.5C 59.5,6.16667 65.5,12.8333 71.5,19.5C 65.5,19.5 59.5,19.5 53.5,19.5C 50.9392,15.7737 47.6059,12.9404 43.5,11C 39.9059,7.24989 36.5725,3.41655 33.5,-0.5 Z"/></g>
<g><path style="opacity:1" fill="#ec625e" d="M 22.5,-0.5 C 26.1667,-0.5 29.8333,-0.5 33.5,-0.5C 36.5725,3.41655 39.9059,7.24989 43.5,11C 47.6059,12.9404 50.9392,15.7737 53.5,19.5C 49.5,19.5 45.5,19.5 41.5,19.5C 35.216,12.8802 28.8826,6.21351 22.5,-0.5 Z"/></g>
<g><path style="opacity:1" fill="#f29391" d="M 2.5,-0.5 C 5.5,-0.5 8.5,-0.5 11.5,-0.5C 15.8968,5.71253 21.2301,11.0459 27.5,15.5C 28.6302,16.6223 29.2969,17.9557 29.5,19.5C 26.1625,19.0653 23.1625,19.7319 20.5,21.5C 15.4181,16.9321 10.0848,11.7655 4.5,6C 3.16667,5.33333 1.83333,4.66667 0.5,4C 1.26656,2.52951 1.93323,1.02951 2.5,-0.5 Z"/></g>
<g><path style="opacity:1" fill="#ee7774" d="M 11.5,-0.5 C 15.1667,-0.5 18.8333,-0.5 22.5,-0.5C 28.8826,6.21351 35.216,12.8802 41.5,19.5C 37.5,19.5 33.5,19.5 29.5,19.5C 29.2969,17.9557 28.6302,16.6223 27.5,15.5C 21.2301,11.0459 15.8968,5.71253 11.5,-0.5 Z"/></g>
<g><path style="opacity:1" fill="#f4a6a3" d="M -0.5,-0.5 C 0.5,-0.5 1.5,-0.5 2.5,-0.5C 1.93323,1.02951 1.26656,2.52951 0.5,4C 1.83333,4.66667 3.16667,5.33333 4.5,6C 10.0848,11.7655 15.4181,16.9321 20.5,21.5C 20.5,21.8333 20.5,22.1667 20.5,22.5C 19.5206,25.6248 19.1872,28.9581 19.5,32.5C 13.1359,25.8014 6.46923,19.4681 -0.5,13.5C -0.5,8.83333 -0.5,4.16667 -0.5,-0.5 Z"/></g>
<g><path style="opacity:1" fill="#fefdfc" d="M 29.5,19.5 C 33.5,19.5 37.5,19.5 41.5,19.5C 45.5,19.5 49.5,19.5 53.5,19.5C 59.5,19.5 65.5,19.5 71.5,19.5C 76.5111,19.3341 81.5111,19.5007 86.5,20C 64.632,42.035 42.632,63.8683 20.5,85.5C 20.3022,64.6793 20.3022,43.6793 20.5,22.5C 20.5,22.1667 20.5,21.8333 20.5,21.5C 23.1625,19.7319 26.1625,19.0653 29.5,19.5 Z"/></g>
<g><path style="opacity:1" fill="#f7bfbe" d="M -0.5,13.5 C 6.46923,19.4681 13.1359,25.8014 19.5,32.5C 19.5,37.5 19.5,42.5 19.5,47.5C 12.8802,41.216 6.21351,34.8826 -0.5,28.5C -0.5,23.5 -0.5,18.5 -0.5,13.5 Z"/></g>
<g><path style="opacity:1" fill="#fad8d7" d="M -0.5,28.5 C 6.21351,34.8826 12.8802,41.216 19.5,47.5C 19.6662,53.5092 19.4995,59.5092 19,65.5C 12.6315,58.964 6.13149,52.6306 -0.5,46.5C -0.5,40.5 -0.5,34.5 -0.5,28.5 Z"/></g>
<g><path style="opacity:1" fill="#fefdfd" d="M 106.5,40.5 C 107.479,43.6248 107.813,46.9581 107.5,50.5C 107.5,54.5 107.5,58.5 107.5,62.5C 107.5,66.5 107.5,70.5 107.5,74.5C 107.5,78.8333 107.5,83.1667 107.5,87.5C 107.5,93.1667 107.5,98.8333 107.5,104.5C 106.5,105.167 105.5,105.833 104.5,106.5C 83.811,106.195 63.1443,106.695 42.5,108C 50.398,113.601 57.398,120.101 63.5,127.5C 49.1667,127.5 34.8333,127.5 20.5,127.5C 49.1667,98.5 77.8333,69.5 106.5,40.5 Z"/></g>
<g><path style="opacity:1" fill="#e52823" d="M 106.5,40.5 C 107.672,39.2947 109.005,39.2947 110.5,40.5C 115.854,46.521 121.521,52.1877 127.5,57.5C 127.5,61.5 127.5,65.5 127.5,69.5C 120.833,63.1667 114.167,56.8333 107.5,50.5C 107.813,46.9581 107.479,43.6248 106.5,40.5 Z"/></g>
<g><path style="opacity:1" fill="#fdf0f0" d="M 20.5,22.5 C 20.3022,43.6793 20.3022,64.6793 20.5,85.5C 19.8333,86.8333 18.8333,87.8333 17.5,88.5C 17.3921,86.2166 16.5588,84.2166 15,82.5C 14.6667,82.8333 14.3333,83.1667 14,83.5C 12.0179,80.1897 9.68455,77.1897 7,74.5C 6.66667,74.8333 6.33333,75.1667 6,75.5C 4.62183,72.2932 2.45516,69.9599 -0.5,68.5C -0.5,61.1667 -0.5,53.8333 -0.5,46.5C 6.13149,52.6306 12.6315,58.964 19,65.5C 19.4995,59.5092 19.6662,53.5092 19.5,47.5C 19.5,42.5 19.5,37.5 19.5,32.5C 19.1872,28.9581 19.5206,25.6248 20.5,22.5 Z"/></g>
<g><path style="opacity:1" fill="#fefdfc" d="M -0.5,68.5 C 2.45516,69.9599 4.62183,72.2932 6,75.5C 6.33333,75.1667 6.66667,74.8333 7,74.5C 9.68455,77.1897 12.0179,80.1897 14,83.5C 14.3333,83.1667 14.6667,82.8333 15,82.5C 16.5588,84.2166 17.3921,86.2166 17.5,88.5C 11.8333,94.8333 5.83333,100.833 -0.5,106.5C -0.5,93.8333 -0.5,81.1667 -0.5,68.5 Z"/></g>
<g><path style="opacity:1" fill="#e73f39" d="M 107.5,50.5 C 114.167,56.8333 120.833,63.1667 127.5,69.5C 127.5,73.1667 127.5,76.8333 127.5,80.5C 121.112,74.1077 114.445,68.1077 107.5,62.5C 107.5,58.5 107.5,54.5 107.5,50.5 Z"/></g>
<g><path style="opacity:1" fill="#eb5853" d="M 107.5,62.5 C 114.445,68.1077 121.112,74.1077 127.5,80.5C 127.5,84.1667 127.5,87.8333 127.5,91.5C 126.761,91.631 126.094,91.4643 125.5,91C 120.304,85.8906 115.304,80.5572 110.5,75C 109.552,74.5172 108.552,74.3505 107.5,74.5C 107.5,70.5 107.5,66.5 107.5,62.5 Z"/></g>
<g><path style="opacity:1" fill="#ed6f6b" d="M 107.5,74.5 C 108.552,74.3505 109.552,74.5172 110.5,75C 115.304,80.5572 120.304,85.8906 125.5,91C 126.094,91.4643 126.761,91.631 127.5,91.5C 127.5,96.5 127.5,101.5 127.5,106.5C 122.035,101.536 116.702,96.3697 111.5,91C 110.552,90.5172 109.552,90.3505 108.5,90.5C 108.737,89.209 108.404,88.209 107.5,87.5C 107.5,83.1667 107.5,78.8333 107.5,74.5 Z"/></g>
<g><path style="opacity:1" fill="#f1908d" d="M 107.5,87.5 C 108.404,88.209 108.737,89.209 108.5,90.5C 109.552,90.3505 110.552,90.5172 111.5,91C 116.702,96.3697 122.035,101.536 127.5,106.5C 127.5,111.5 127.5,116.5 127.5,121.5C 126.234,120.91 124.901,120.41 123.5,120C 118.271,114.603 112.938,109.436 107.5,104.5C 107.5,98.8333 107.5,93.1667 107.5,87.5 Z"/></g>
<g><path style="opacity:1" fill="#fdeeee" d="M 104.5,106.5 C 101.713,107.477 98.7131,107.81 95.5,107.5C 90.5,107.5 85.5,107.5 80.5,107.5C 74.3172,107.047 68.3172,107.547 62.5,109C 69.3373,114.671 75.6707,120.838 81.5,127.5C 75.5,127.5 69.5,127.5 63.5,127.5C 57.398,120.101 50.398,113.601 42.5,108C 63.1443,106.695 83.811,106.195 104.5,106.5 Z"/></g>
<g><path style="opacity:1" fill="#fadcdb" d="M 80.5,107.5 C 87.5083,113.509 93.8416,120.175 99.5,127.5C 93.5,127.5 87.5,127.5 81.5,127.5C 75.6707,120.838 69.3373,114.671 62.5,109C 68.3172,107.547 74.3172,107.047 80.5,107.5 Z"/></g>
<g><path style="opacity:1" fill="#f8c5c4" d="M 80.5,107.5 C 85.5,107.5 90.5,107.5 95.5,107.5C 101.778,114.114 108.111,120.781 114.5,127.5C 109.5,127.5 104.5,127.5 99.5,127.5C 93.8416,120.175 87.5083,113.509 80.5,107.5 Z"/></g>
<g><path style="opacity:1" fill="#f4a8a5" d="M 107.5,104.5 C 112.938,109.436 118.271,114.603 123.5,120C 124.901,120.41 126.234,120.91 127.5,121.5C 127.5,123.5 127.5,125.5 127.5,127.5C 123.167,127.5 118.833,127.5 114.5,127.5C 108.111,120.781 101.778,114.114 95.5,107.5C 98.7131,107.81 101.713,107.477 104.5,106.5C 105.5,105.833 106.5,105.167 107.5,104.5 Z"/></g>
<g><path style="opacity:1" fill="#fefbfa" d="M -0.5,125.5 C 0.5,125.833 1.16667,126.5 1.5,127.5C 0.833333,127.5 0.166667,127.5 -0.5,127.5C -0.5,126.833 -0.5,126.167 -0.5,125.5 Z"/></g>
</svg>
