<svg width="108" height="108" viewBox="0 0 108 108" fill="none" xmlns="http://www.w3.org/2000/svg">
<path d="M54 108C83.8234 108 108 83.8234 108 54C108 24.1766 83.8234 0 54 0C24.1766 0 0 24.1766 0 54C0 83.8234 24.1766 108 54 108Z" fill="#1896A4"/>
<path d="M60.74 70.88C58.68 71.7 56.45 72.17 54.1 72.17C44.22 72.17 36.21 64.16 36.21 54.28C36.21 53.55 36.27 52.83 36.35 52.12L18.33 49.19C18.1136 50.7842 18.0033 52.3911 18 54C18 73.88 34.12 90 54 90C60.97 90 67.47 88.01 72.98 84.58L60.74 70.88ZM70.93 48.18L46.99 53.46L89.04 62.2C89.65 59.57 89.99 56.82 89.99 54C89.99 34.12 73.87 18 53.99 18C46.01 18 38.65 20.6 32.68 24.99L45.12 38.81C47.8441 37.216 50.9439 36.3772 54.1 36.38C61.84 36.38 68.44 41.3 70.93 48.18Z" fill="white"/>
</svg>
