<svg width="80" height="80" viewBox="0 0 80 80" fill="none" xmlns="http://www.w3.org/2000/svg">
<rect width="80" height="80" rx="40" fill="#F0B90B"/>
<path fill-rule="evenodd" clip-rule="evenodd" d="M40.0001 12.26L25.2642 20.7585L30.6818 23.898L40.0001 18.5391L49.3183 23.898L54.736 20.7585L40.0001 12.26ZM49.3183 28.3367L54.736 31.4763V37.7554L45.4176 43.1143V53.8321L40.0001 56.9718L34.5824 53.8321V43.1143L25.2642 37.7554V31.4763L30.6818 28.3367L40.0001 33.6955L49.3183 28.3367ZM54.736 42.1941V48.4732L49.3183 51.6129V45.3336L54.736 42.1941ZM49.2641 56.0514L58.5825 50.6925V39.9746L64 36.8352V53.8321L49.2641 62.3305V56.0514ZM58.5825 29.2569L53.1648 26.1174L58.5825 22.9778L64 26.1174V32.3965L58.5825 35.5361V29.2569ZM34.5824 64.6041V58.325L40.0001 61.4644L45.4176 58.325V64.6041L40.0001 67.7435L34.5824 64.6041ZM30.6818 51.6129L25.2642 48.4732V42.1941L30.6818 45.3336V51.6129ZM40.0001 29.2569L34.5824 26.1174L40.0001 22.9778L45.4176 26.1174L40.0001 29.2569ZM26.8352 26.1174L21.4176 29.2569V35.5361L16 32.3965V26.1174L21.4176 22.9778L26.8352 26.1174ZM16 36.8352L21.4176 39.9746V50.6925L30.7359 56.0514V62.3305L16 53.8321V36.8352Z" fill="white"/>
</svg>
