<svg width="80" height="80" viewBox="0 0 80 80" fill="none" xmlns="http://www.w3.org/2000/svg">
<rect width="80" height="80" rx="40" fill="url(#paint0_linear_142_1086)"/>
<g clip-path="url(#clip0_142_1086)">
<path d="M50.2333 17.5641L35.6881 31.028C34.1821 32.4246 32.2223 33.1965 30.188 33.2063L25.8525 33.2157L25.8385 17.5641H18V62.2933H22.2747C24.6646 62.2933 26.8954 61.0015 28.0647 58.8808C28.074 58.8665 28.0787 58.8523 28.0881 58.8429C28.8645 57.4221 29.2526 54.6151 29.1778 52.6992C29.0094 48.3193 28.3172 47.1802 28.3172 47.1802C28.1723 50.1827 25.0949 50.3447 25.0949 50.3447C27.2837 48.2144 26.091 46.6033 26.091 46.6033C22.2139 49.4156 21.2458 46.4128 21.1709 46.141C21.2925 46.2459 22.3963 47.1851 24.4915 44.2585C26.7084 41.1655 29.6642 36.0084 31.5444 34.6837C33.429 33.354 35.2157 33.4637 35.2157 33.4637C35.2157 33.4637 36.2447 32.0431 38.9665 30.8612C41.6885 29.6889 43.4331 31.4095 43.4331 31.4095C40.6504 33.6971 36.8714 37.4527 36.6607 42.8334C36.4924 47.1896 45.7061 54.6629 44.0876 65.7008C45.0561 63.194 45.4441 60.6826 45.1121 57.5748C44.8453 55.068 43.2599 49.8301 43.2599 49.8301L52.1085 62.2884H61.8928L42.7687 35.5176L61.8928 17.5641H50.2333Z" fill="white"/>
<path d="M32.4123 36.8235C31.795 37.8671 31.795 38.1866 31.795 38.1866C31.795 38.1866 33.9558 37.8149 34.5404 35.1984C34.5449 35.1984 33.1606 35.5603 32.4123 36.8235Z" fill="white"/>
</g>
<defs>
<linearGradient id="paint0_linear_142_1086" x1="120" y1="90.2025" x2="57.9084" y2="-18.2682" gradientUnits="userSpaceOnUse">
<stop stop-color="#E40C5B"/>
<stop offset="1" stop-color="#FF4C3B"/>
</linearGradient>
<clipPath id="clip0_142_1086">
<rect width="44" height="48.1368" fill="white" transform="translate(18 17.5641)"/>
</clipPath>
</defs>
</svg>
